<?xml version="1.0" encoding="UTF-8" standalone="no"?>
<svg width="200.025mm" height="130.175mm"
 viewBox="0 0 567 369"
 xmlns="http://www.w3.org/2000/svg" xmlns:xlink="http://www.w3.org/1999/xlink"  version="1.2" baseProfile="tiny">
<title>Qt SVG Document</title>
<desc>MATLAB, The MathWorks, Inc. Version 25.2.0.2998904 R2025b</desc>
<defs>
</defs>
<g fill="none" stroke="black" stroke-width="1" fill-rule="evenodd" stroke-linecap="square" stroke-linejoin="bevel" >

<g fill="#ffffff" fill-opacity="1" stroke="none" transform="matrix(0.729659,0,0,0.72577,-40.1878,-11.7513)"
font-family="MS Shell Dlg 2" font-size="8.25" font-weight="400" font-style="normal" 
>
<path vector-effect="none" fill-rule="evenodd" d="M54,15 L832,15 L832,524 L54,524 L54,15"/>
</g>

<g fill="#ffffff" fill-opacity="1" stroke="none" transform="matrix(7.29659e-05,0,0,7.2577e-05,-40.1878,-11.7513)"
font-family="MS Shell Dlg 2" font-size="8.25" font-weight="400" font-style="normal" 
>
<path vector-effect="none" fill-rule="evenodd" d="M1.19e+06,420000 L1.19e+06,4.98e+06 L8.3e+06,4.98e+06 L8.3e+06,420000 L1.19e+06,420000"/>
</g>

<g fill="#212121" fill-opacity="1" stroke="#212121" stroke-opacity="1" stroke-width="0.666667" stroke-linecap="square" stroke-linejoin="round" transform="matrix(0.729659,0,0,0.72577,-40.1878,-11.7513)"
font-family="MS Shell Dlg 2" font-size="8.25" font-weight="400" font-style="normal" 
>
<polyline fill="none" vector-effect="none" points="119,498 830,498 " />
<polyline fill="none" vector-effect="none" points="119,42 830,42 " />
<polyline fill="none" vector-effect="none" points="197.307,498 197.307,490.89 " />
<polyline fill="none" vector-effect="none" points="197.307,49.11 197.307,42 " />
<polyline fill="none" vector-effect="none" points="335.904,498 335.904,490.89 " />
<polyline fill="none" vector-effect="none" points="335.904,49.11 335.904,42 " />
<polyline fill="none" vector-effect="none" points="474.5,498 474.5,490.89 " />
<polyline fill="none" vector-effect="none" points="474.5,49.11 474.5,42 " />
<polyline fill="none" vector-effect="none" points="613.096,498 613.096,490.89 " />
<polyline fill="none" vector-effect="none" points="613.096,49.11 613.096,42 " />
<polyline fill="none" vector-effect="none" points="751.693,498 751.693,490.89 " />
<polyline fill="none" vector-effect="none" points="751.693,49.11 751.693,42 " />
</g>

<g fill="#212121" fill-opacity="1" stroke="#212121" stroke-opacity="1" stroke-width="1" stroke-linecap="square" stroke-linejoin="bevel" transform="matrix(0.729659,0,0,0.72577,89.9155,364.827)"
font-family="Helvetica" font-size="16" font-weight="400" font-style="normal" 
>
<text fill="#212121" fill-opacity="1" stroke="none" xml:space="preserve" x="0" y="0" font-family="Helvetica" font-size="16" font-weight="400" font-style="normal" 
 >initial</text>
</g>

<g fill="#212121" fill-opacity="1" stroke="#212121" stroke-opacity="1" stroke-width="1" stroke-linecap="square" stroke-linejoin="bevel" transform="matrix(0.729659,0,0,0.72577,190.314,364.827)"
font-family="Helvetica" font-size="16" font-weight="400" font-style="normal" 
>
<text fill="#212121" fill-opacity="1" stroke="none" xml:space="preserve" x="0" y="0" font-family="Helvetica" font-size="16" font-weight="400" font-style="normal" 
 >opt_1</text>
</g>

<g fill="#212121" fill-opacity="1" stroke="#212121" stroke-opacity="1" stroke-width="1" stroke-linecap="square" stroke-linejoin="bevel" transform="matrix(0.729659,0,0,0.72577,291.442,364.827)"
font-family="Helvetica" font-size="16" font-weight="400" font-style="normal" 
>
<text fill="#212121" fill-opacity="1" stroke="none" xml:space="preserve" x="0" y="0" font-family="Helvetica" font-size="16" font-weight="400" font-style="normal" 
 >opt_2</text>
</g>

<g fill="#212121" fill-opacity="1" stroke="#212121" stroke-opacity="1" stroke-width="1" stroke-linecap="square" stroke-linejoin="bevel" transform="matrix(0.729659,0,0,0.72577,392.57,364.827)"
font-family="Helvetica" font-size="16" font-weight="400" font-style="normal" 
>
<text fill="#212121" fill-opacity="1" stroke="none" xml:space="preserve" x="0" y="0" font-family="Helvetica" font-size="16" font-weight="400" font-style="normal" 
 >opt_3</text>
</g>

<g fill="#212121" fill-opacity="1" stroke="#212121" stroke-opacity="1" stroke-width="1" stroke-linecap="square" stroke-linejoin="bevel" transform="matrix(0.729659,0,0,0.72577,497.347,364.827)"
font-family="Helvetica" font-size="16" font-weight="400" font-style="normal" 
>
<text fill="#212121" fill-opacity="1" stroke="none" xml:space="preserve" x="0" y="0" font-family="Helvetica" font-size="16" font-weight="400" font-style="normal" 
 >final</text>
</g>

<g fill="#212121" fill-opacity="1" stroke="#212121" stroke-opacity="1" stroke-width="1" stroke-linecap="square" stroke-linejoin="bevel" transform="matrix(0,-0.72577,0.729659,0,10.2559,210.334)"
font-family="Helvetica" font-size="17" font-weight="400" font-style="normal" 
>
<text fill="#212121" fill-opacity="1" stroke="none" xml:space="preserve" x="0" y="0" font-family="Helvetica" font-size="17" font-weight="400" font-style="normal" 
 >time (ms)</text>
</g>

<g fill="#212121" fill-opacity="1" stroke="#212121" stroke-opacity="1" stroke-width="0.666667" stroke-linecap="square" stroke-linejoin="round" transform="matrix(0.729659,0,0,0.72577,-40.1878,-11.7513)"
font-family="Helvetica" font-size="17" font-weight="400" font-style="normal" 
>
<polyline fill="none" vector-effect="none" points="119,498 119,42 " />
<polyline fill="none" vector-effect="none" points="830,498 830,42 " />
<polyline fill="none" vector-effect="none" points="119,470.906 126.11,470.906 " />
<polyline fill="none" vector-effect="none" points="822.89,470.906 830,470.906 " />
<polyline fill="none" vector-effect="none" points="119,428.015 126.11,428.015 " />
<polyline fill="none" vector-effect="none" points="822.89,428.015 830,428.015 " />
<polyline fill="none" vector-effect="none" points="119,385.124 126.11,385.124 " />
<polyline fill="none" vector-effect="none" points="822.89,385.124 830,385.124 " />
<polyline fill="none" vector-effect="none" points="119,342.234 126.11,342.234 " />
<polyline fill="none" vector-effect="none" points="822.89,342.234 830,342.234 " />
<polyline fill="none" vector-effect="none" points="119,299.343 126.11,299.343 " />
<polyline fill="none" vector-effect="none" points="822.89,299.343 830,299.343 " />
<polyline fill="none" vector-effect="none" points="119,256.453 126.11,256.453 " />
<polyline fill="none" vector-effect="none" points="822.89,256.453 830,256.453 " />
<polyline fill="none" vector-effect="none" points="119,213.562 126.11,213.562 " />
<polyline fill="none" vector-effect="none" points="822.89,213.562 830,213.562 " />
<polyline fill="none" vector-effect="none" points="119,170.672 126.11,170.672 " />
<polyline fill="none" vector-effect="none" points="822.89,170.672 830,170.672 " />
<polyline fill="none" vector-effect="none" points="119,127.781 126.11,127.781 " />
<polyline fill="none" vector-effect="none" points="822.89,127.781 830,127.781 " />
<polyline fill="none" vector-effect="none" points="119,84.8906 126.11,84.8906 " />
<polyline fill="none" vector-effect="none" points="822.89,84.8906 830,84.8906 " />
<polyline fill="none" vector-effect="none" points="119,42 126.11,42 " />
<polyline fill="none" vector-effect="none" points="822.89,42 830,42 " />
</g>

<g fill="#212121" fill-opacity="1" stroke="#212121" stroke-opacity="1" stroke-width="1" stroke-linecap="square" stroke-linejoin="bevel" transform="matrix(0.729659,0,0,0.72577,16.0932,334.01)"
font-family="Helvetica" font-size="16" font-weight="400" font-style="normal" 
>
<text fill="#212121" fill-opacity="1" stroke="none" xml:space="preserve" x="0" y="0" font-family="Helvetica" font-size="16" font-weight="400" font-style="normal" 
 >1920</text>
</g>

<g fill="#212121" fill-opacity="1" stroke="#212121" stroke-opacity="1" stroke-width="1" stroke-linecap="square" stroke-linejoin="bevel" transform="matrix(0.729659,0,0,0.72577,16.0932,302.881)"
font-family="Helvetica" font-size="16" font-weight="400" font-style="normal" 
>
<text fill="#212121" fill-opacity="1" stroke="none" xml:space="preserve" x="0" y="0" font-family="Helvetica" font-size="16" font-weight="400" font-style="normal" 
 >1940</text>
</g>

<g fill="#212121" fill-opacity="1" stroke="#212121" stroke-opacity="1" stroke-width="1" stroke-linecap="square" stroke-linejoin="bevel" transform="matrix(0.729659,0,0,0.72577,16.0932,271.752)"
font-family="Helvetica" font-size="16" font-weight="400" font-style="normal" 
>
<text fill="#212121" fill-opacity="1" stroke="none" xml:space="preserve" x="0" y="0" font-family="Helvetica" font-size="16" font-weight="400" font-style="normal" 
 >1960</text>
</g>

<g fill="#212121" fill-opacity="1" stroke="#212121" stroke-opacity="1" stroke-width="1" stroke-linecap="square" stroke-linejoin="bevel" transform="matrix(0.729659,0,0,0.72577,16.0932,240.624)"
font-family="Helvetica" font-size="16" font-weight="400" font-style="normal" 
>
<text fill="#212121" fill-opacity="1" stroke="none" xml:space="preserve" x="0" y="0" font-family="Helvetica" font-size="16" font-weight="400" font-style="normal" 
 >1980</text>
</g>

<g fill="#212121" fill-opacity="1" stroke="#212121" stroke-opacity="1" stroke-width="1" stroke-linecap="square" stroke-linejoin="bevel" transform="matrix(0.729659,0,0,0.72577,16.0932,209.495)"
font-family="Helvetica" font-size="16" font-weight="400" font-style="normal" 
>
<text fill="#212121" fill-opacity="1" stroke="none" xml:space="preserve" x="0" y="0" font-family="Helvetica" font-size="16" font-weight="400" font-style="normal" 
 >2000</text>
</g>

<g fill="#212121" fill-opacity="1" stroke="#212121" stroke-opacity="1" stroke-width="1" stroke-linecap="square" stroke-linejoin="bevel" transform="matrix(0.729659,0,0,0.72577,16.0932,178.366)"
font-family="Helvetica" font-size="16" font-weight="400" font-style="normal" 
>
<text fill="#212121" fill-opacity="1" stroke="none" xml:space="preserve" x="0" y="0" font-family="Helvetica" font-size="16" font-weight="400" font-style="normal" 
 >2020</text>
</g>

<g fill="#212121" fill-opacity="1" stroke="#212121" stroke-opacity="1" stroke-width="1" stroke-linecap="square" stroke-linejoin="bevel" transform="matrix(0.729659,0,0,0.72577,16.0932,147.237)"
font-family="Helvetica" font-size="16" font-weight="400" font-style="normal" 
>
<text fill="#212121" fill-opacity="1" stroke="none" xml:space="preserve" x="0" y="0" font-family="Helvetica" font-size="16" font-weight="400" font-style="normal" 
 >2040</text>
</g>

<g fill="#212121" fill-opacity="1" stroke="#212121" stroke-opacity="1" stroke-width="1" stroke-linecap="square" stroke-linejoin="bevel" transform="matrix(0.729659,0,0,0.72577,16.0932,116.109)"
font-family="Helvetica" font-size="16" font-weight="400" font-style="normal" 
>
<text fill="#212121" fill-opacity="1" stroke="none" xml:space="preserve" x="0" y="0" font-family="Helvetica" font-size="16" font-weight="400" font-style="normal" 
 >2060</text>
</g>

<g fill="#212121" fill-opacity="1" stroke="#212121" stroke-opacity="1" stroke-width="1" stroke-linecap="square" stroke-linejoin="bevel" transform="matrix(0.729659,0,0,0.72577,16.0932,84.9801)"
font-family="Helvetica" font-size="16" font-weight="400" font-style="normal" 
>
<text fill="#212121" fill-opacity="1" stroke="none" xml:space="preserve" x="0" y="0" font-family="Helvetica" font-size="16" font-weight="400" font-style="normal" 
 >2080</text>
</g>

<g fill="#212121" fill-opacity="1" stroke="#212121" stroke-opacity="1" stroke-width="1" stroke-linecap="square" stroke-linejoin="bevel" transform="matrix(0.729659,0,0,0.72577,16.0932,53.8514)"
font-family="Helvetica" font-size="16" font-weight="400" font-style="normal" 
>
<text fill="#212121" fill-opacity="1" stroke="none" xml:space="preserve" x="0" y="0" font-family="Helvetica" font-size="16" font-weight="400" font-style="normal" 
 >2100</text>
</g>

<g fill="#212121" fill-opacity="1" stroke="#212121" stroke-opacity="1" stroke-width="1" stroke-linecap="square" stroke-linejoin="bevel" transform="matrix(0.729659,0,0,0.72577,16.0932,22.7227)"
font-family="Helvetica" font-size="16" font-weight="400" font-style="normal" 
>
<text fill="#212121" fill-opacity="1" stroke="none" xml:space="preserve" x="0" y="0" font-family="Helvetica" font-size="16" font-weight="400" font-style="normal" 
 >2120</text>
</g>

<g fill="#212121" fill-opacity="1" stroke="#212121" stroke-opacity="1" stroke-dasharray="10,6" stroke-dashoffset="0" stroke-width="0.666667" stroke-linecap="butt" stroke-linejoin="round" transform="matrix(0.729659,0,0,0.72577,-40.1878,-11.7513)"
font-family="Helvetica" font-size="16" font-weight="400" font-style="normal" 
>
<polyline fill="none" vector-effect="none" points="197.307,158.711 197.307,73.3532 " />
<polyline fill="none" vector-effect="none" points="335.904,279.474 335.904,232.927 " />
<polyline fill="none" vector-effect="none" points="474.5,260.903 474.5,259.198 " />
<polyline fill="none" vector-effect="none" points="613.096,245.542 613.096,228.96 " />
<polyline fill="none" vector-effect="none" points="751.693,316.532 751.693,301.638 " />
<polyline fill="none" vector-effect="none" points="197.307,260.12 197.307,225.379 " />
<polyline fill="none" vector-effect="none" points="335.904,413.732 335.904,374.327 " />
<polyline fill="none" vector-effect="none" points="474.5,369.512 474.5,338.84 " />
<polyline fill="none" vector-effect="none" points="613.096,332.626 613.096,293.494 " />
<polyline fill="none" vector-effect="none" points="751.693,470.219 751.693,390.33 " />
</g>

<g fill="#212121" fill-opacity="1" stroke="#212121" stroke-opacity="1" stroke-width="0.666667" stroke-linecap="butt" stroke-linejoin="round" transform="matrix(0.729659,0,0,0.72577,-40.1878,-11.7513)"
font-family="Helvetica" font-size="16" font-weight="400" font-style="normal" 
>
<polyline fill="none" vector-effect="none" points="179.982,73.3532 214.632,73.3532 " />
<polyline fill="none" vector-effect="none" points="318.579,232.927 353.228,232.927 " />
<polyline fill="none" vector-effect="none" points="457.175,259.198 491.825,259.198 " />
<polyline fill="none" vector-effect="none" points="595.772,228.96 630.421,228.96 " />
<polyline fill="none" vector-effect="none" points="734.368,301.638 769.018,301.638 " />
<polyline fill="none" vector-effect="none" points="179.982,260.12 214.632,260.12 " />
<polyline fill="none" vector-effect="none" points="318.579,413.732 353.228,413.732 " />
<polyline fill="none" vector-effect="none" points="457.175,369.512 491.825,369.512 " />
<polyline fill="none" vector-effect="none" points="595.772,332.626 630.421,332.626 " />
<polyline fill="none" vector-effect="none" points="734.368,470.219 769.018,470.219 " />
</g>

<g fill="none" stroke="#1171be" stroke-opacity="1" stroke-width="0.666667" stroke-linecap="butt" stroke-linejoin="round" transform="matrix(0.729659,0,0,0.72577,-40.1878,-11.7513)"
font-family="Helvetica" font-size="16" font-weight="400" font-style="normal" 
>
<polyline fill="none" vector-effect="none" points="162.658,225.379 162.658,158.711 231.956,158.711 231.956,225.379 162.658,225.379 " />
<polyline fill="none" vector-effect="none" points="301.254,374.327 301.254,279.474 370.553,279.474 370.553,374.327 301.254,374.327 " />
<polyline fill="none" vector-effect="none" points="439.851,338.84 439.851,260.903 509.149,260.903 509.149,338.84 439.851,338.84 " />
<polyline fill="none" vector-effect="none" points="578.447,293.494 578.447,245.542 647.746,245.542 647.746,293.494 578.447,293.494 " />
<polyline fill="none" vector-effect="none" points="717.044,390.33 717.044,316.532 786.342,316.532 786.342,390.33 717.044,390.33 " />
</g>

<g fill="#dd5400" fill-opacity="1" stroke="#dd5400" stroke-opacity="1" stroke-width="0.666667" stroke-linecap="butt" stroke-linejoin="round" transform="matrix(0.729659,0,0,0.72577,-40.1878,-11.7513)"
font-family="Helvetica" font-size="16" font-weight="400" font-style="normal" 
>
<polyline fill="none" vector-effect="none" points="162.658,208.308 231.956,208.308 " />
<polyline fill="none" vector-effect="none" points="301.254,318.601 370.553,318.601 " />
<polyline fill="none" vector-effect="none" points="439.851,321.539 509.149,321.539 " />
<polyline fill="none" vector-effect="none" points="578.447,276.461 647.746,276.461 " />
<polyline fill="none" vector-effect="none" points="717.044,343.821 786.342,343.821 " />
</g>

<g fill="none" stroke="#ff0000" stroke-opacity="1" stroke-width="2" stroke-linecap="butt" stroke-linejoin="miter" stroke-miterlimit="2" transform="matrix(0.729659,0,0,0.72577,-40.1878,-11.7513)"
font-family="Helvetica" font-size="16" font-weight="400" font-style="normal" 
>
<path vector-effect="none" fill-rule="evenodd" d="M191.974,188.548 L197.307,195.642 L202.64,188.548 L197.307,181.455 L191.974,188.548"/>
<path vector-effect="none" fill-rule="evenodd" d="M330.57,324.288 L335.904,331.382 L341.237,324.288 L335.904,317.195 L330.57,324.288"/>
<path vector-effect="none" fill-rule="evenodd" d="M469.167,308.067 L474.5,315.161 L479.833,308.067 L474.5,300.974 L469.167,308.067"/>
<path vector-effect="none" fill-rule="evenodd" d="M607.763,273.913 L613.096,281.007 L618.43,273.913 L613.096,266.82 L607.763,273.913"/>
<path vector-effect="none" fill-rule="evenodd" d="M746.36,360.175 L751.693,367.268 L757.026,360.175 L751.693,353.082 L746.36,360.175"/>
</g>

<g fill="#212121" fill-opacity="1" stroke="#212121" stroke-opacity="1" stroke-width="1" stroke-linecap="square" stroke-linejoin="bevel" transform="matrix(0.729659,0,0,0.72577,261.161,10.935)"
font-family="Helvetica" font-size="18" font-weight="700" font-style="normal" 
>
<text fill="#212121" fill-opacity="1" stroke="none" xml:space="preserve" x="0" y="0" font-family="Helvetica" font-size="18" font-weight="700" font-style="normal" 
 >Scenario 1</text>
</g>
</g>
</svg>
