<?xml version="1.0" encoding="UTF-8" standalone="no"?>
<svg width="200.025mm" height="130.175mm"
 viewBox="0 0 567 369"
 xmlns="http://www.w3.org/2000/svg" xmlns:xlink="http://www.w3.org/1999/xlink"  version="1.2" baseProfile="tiny">
<title>Qt SVG Document</title>
<desc>MATLAB, The MathWorks, Inc. Version 25.2.0.2998904 R2025b</desc>
<defs>
</defs>
<g fill="none" stroke="black" stroke-width="1" fill-rule="evenodd" stroke-linecap="square" stroke-linejoin="bevel" >

<g fill="#ffffff" fill-opacity="1" stroke="none" transform="matrix(0.731552,0,0,0.726997,-43.9538,-11.6647)"
font-family="MS Shell Dlg 2" font-size="8.25" font-weight="400" font-style="normal" 
>
<path vector-effect="none" fill-rule="evenodd" d="M59,15 L835,15 L835,523 L59,523 L59,15"/>
</g>

<g fill="#ffffff" fill-opacity="1" stroke="none" transform="matrix(7.31552e-05,0,0,7.26997e-05,-43.9538,-11.6647)"
font-family="MS Shell Dlg 2" font-size="8.25" font-weight="400" font-style="normal" 
>
<path vector-effect="none" fill-rule="evenodd" d="M1.2e+06,550000 L1.2e+06,4.97e+06 L4.27e+06,4.97e+06 L4.27e+06,550000 L1.2e+06,550000"/>
</g>

<g fill="#212121" fill-opacity="1" stroke="#212121" stroke-opacity="1" stroke-width="0.666667" stroke-linecap="square" stroke-linejoin="round" transform="matrix(0.731552,0,0,0.726997,-43.9538,-11.6647)"
font-family="MS Shell Dlg 2" font-size="8.25" font-weight="400" font-style="normal" 
>
<polyline fill="none" vector-effect="none" points="120,497 427,497 " />
<polyline fill="none" vector-effect="none" points="120,55 427,55 " />
<polyline fill="none" vector-effect="none" points="163.582,497 163.582,492.58 " />
<polyline fill="none" vector-effect="none" points="163.582,59.42 163.582,55 " />
<polyline fill="none" vector-effect="none" points="273.5,497 273.5,492.58 " />
<polyline fill="none" vector-effect="none" points="273.5,59.42 273.5,55 " />
<polyline fill="none" vector-effect="none" points="383.418,497 383.418,492.58 " />
<polyline fill="none" vector-effect="none" points="383.418,59.42 383.418,55 " />
</g>

<g fill="#212121" fill-opacity="1" stroke="none" transform="matrix(0.731552,0,0,0.726997,61.8158,364.823)"
font-family="MS Shell Dlg 2" font-size="8.25" font-weight="400" font-style="normal" 
>
<path vector-effect="none" fill-rule="evenodd" d="M1.0625,-9.84375 L1.0625,-11.4531 L2.46875,-11.4531 L2.46875,-9.84375 L1.0625,-9.84375 M1.0625,0 L1.0625,-8.29688 L2.46875,-8.29688 L2.46875,0 L1.0625,0 M5.0625,0 L5.0625,-8.29688 L6.32813,-8.29688 L6.32813,-7.125 C6.93229,-8.03125 7.8125,-8.48438 8.96875,-8.48438 C9.46875,-8.48438 9.92708,-8.39583 10.3438,-8.21875 C10.7604,-8.04167 11.0729,-7.80729 11.2813,-7.51563 C11.4896,-7.22396 11.6354,-6.875 11.7188,-6.46875 C11.7708,-6.20833 11.7969,-5.75521 11.7969,-5.10938 L11.7969,0 L10.3906,0 L10.3906,-5.04688 C10.3906,-5.61979 10.3359,-6.04948 10.2266,-6.33594 C10.1172,-6.6224 9.92448,-6.84896 9.64844,-7.01563 C9.3724,-7.18229 9.04688,-7.26563 8.67188,-7.26563 C8.06771,-7.26563 7.54948,-7.07552 7.11719,-6.69531 C6.6849,-6.3151 6.46875,-5.59375 6.46875,-4.53125 L6.46875,0 L5.0625,0 M14.0625,-9.84375 L14.0625,-11.4531 L15.4688,-11.4531 L15.4688,-9.84375 L14.0625,-9.84375 M14.0625,0 L14.0625,-8.29688 L15.4688,-8.29688 L15.4688,0 L14.0625,0 M21.125,-1.26563 L21.3281,-0.015625 C20.9323,0.0677083 20.5781,0.109375 20.2656,0.109375 C19.7552,0.109375 19.3594,0.0286458 19.0781,-0.132813 C18.7969,-0.294271 18.599,-0.507813 18.4844,-0.773438 C18.3698,-1.03906 18.3125,-1.59375 18.3125,-2.4375 L18.3125,-7.20313 L17.2813,-7.20313 L17.2813,-8.29688 L18.3125,-8.29688 L18.3125,-10.3594 L19.7188,-11.2031 L19.7188,-8.29688 L21.125,-8.29688 L21.125,-7.20313 L19.7188,-7.20313 L19.7188,-2.35938 C19.7188,-1.95313 19.7422,-1.69271 19.7891,-1.57813 C19.8359,-1.46354 19.9167,-1.3724 20.0313,-1.30469 C20.1458,-1.23698 20.3073,-1.20313 20.5156,-1.20313 C20.6719,-1.20313 20.875,-1.22396 21.125,-1.26563 M22.0625,-9.84375 L22.0625,-11.4531 L23.4688,-11.4531 L23.4688,-9.84375 L22.0625,-9.84375 M22.0625,0 L22.0625,-8.29688 L23.4688,-8.29688 L23.4688,0 L22.0625,0 M31.4688,-1.03125 C30.9479,-0.583333 30.4479,-0.268229 29.9688,-0.0859375 C29.4896,0.0963542 28.974,0.1875 28.4219,0.1875 C27.5052,0.1875 26.8021,-0.0364583 26.3125,-0.484375 C25.8229,-0.932292 25.5781,-1.5 25.5781,-2.1875 C25.5781,-2.59375 25.6719,-2.96615 25.8594,-3.30469 C26.0469,-3.64323 26.2891,-3.91406 26.5859,-4.11719 C26.8828,-4.32031 27.2188,-4.47396 27.5938,-4.57813 C27.875,-4.65104 28.2917,-4.71875 28.8438,-4.78125 C29.9792,-4.91667 30.8177,-5.07813 31.3594,-5.26563 C31.3594,-5.46354 31.3594,-5.58854 31.3594,-5.64063 C31.3594,-6.21354 31.2292,-6.61458 30.9688,-6.84375 C30.6042,-7.16667 30.0677,-7.32813 29.3594,-7.32813 C28.7031,-7.32813 28.2161,-7.21094 27.8984,-6.97656 C27.5807,-6.74219 27.349,-6.33333 27.2031,-5.75 L25.8281,-5.9375 C25.9531,-6.52083 26.1589,-6.99479 26.4453,-7.35938 C26.7318,-7.72396 27.1458,-8.0026 27.6875,-8.19531 C28.2292,-8.38802 28.8542,-8.48438 29.5625,-8.48438 C30.2708,-8.48438 30.8464,-8.40104 31.2891,-8.23438 C31.7318,-8.06771 32.0573,-7.85938 32.2656,-7.60938 C32.474,-7.35938 32.6198,-7.04167 32.7031,-6.65625 C32.7552,-6.41667 32.7813,-5.98438 32.7813,-5.35938 L32.7813,-3.48438 C32.7813,-2.17188 32.8099,-1.34375 32.8672,-1 C32.9245,-0.65625 33.0417,-0.322917 33.2188,0 L31.75,0 C31.6042,-0.291667 31.5104,-0.635417 31.4688,-1.03125 M31.3594,-4.17188 C30.849,-3.96354 30.0833,-3.78646 29.0625,-3.64063 C28.4792,-3.55729 28.0677,-3.46354 27.8281,-3.35938 C27.5885,-3.25521 27.4036,-3.10156 27.2734,-2.89844 C27.1432,-2.69531 27.0781,-2.47396 27.0781,-2.23438 C27.0781,-1.85938 27.2214,-1.54688 27.5078,-1.29688 C27.7943,-1.04688 28.2083,-0.921875 28.75,-0.921875 C29.2917,-0.921875 29.7734,-1.03906 30.1953,-1.27344 C30.6172,-1.50781 30.9271,-1.83333 31.125,-2.25 C31.2813,-2.5625 31.3594,-3.03125 31.3594,-3.65625 L31.3594,-4.17188 M35.0313,0 L35.0313,-11.4531 L36.4375,-11.4531 L36.4375,0 L35.0313,0"/>
</g>

<g fill="#212121" fill-opacity="1" stroke="none" transform="matrix(0.731552,0,0,0.726997,141.495,364.823)"
font-family="MS Shell Dlg 2" font-size="8.25" font-weight="400" font-style="normal" 
>
<path vector-effect="none" fill-rule="evenodd" d="M0.53125,-4.15625 C0.53125,-5.6875 0.958333,-6.82292 1.8125,-7.5625 C2.53125,-8.17708 3.40104,-8.48438 4.42188,-8.48438 C5.56771,-8.48438 6.5026,-8.11198 7.22656,-7.36719 C7.95052,-6.6224 8.3125,-5.58854 8.3125,-4.26563 C8.3125,-3.20313 8.15104,-2.36458 7.82813,-1.75 C7.50521,-1.13542 7.03906,-0.658854 6.42969,-0.320313 C5.82031,0.0182292 5.15104,0.1875 4.42188,0.1875 C3.26563,0.1875 2.32813,-0.184896 1.60938,-0.929688 C0.890625,-1.67448 0.53125,-2.75 0.53125,-4.15625 M1.98438,-4.15625 C1.98438,-3.09375 2.21615,-2.29688 2.67969,-1.76563 C3.14323,-1.23438 3.72396,-0.96875 4.42188,-0.96875 C5.11979,-0.96875 5.70052,-1.23438 6.16406,-1.76563 C6.6276,-2.29688 6.85938,-3.10938 6.85938,-4.20313 C6.85938,-5.22396 6.6276,-6 6.16406,-6.53125 C5.70052,-7.0625 5.11979,-7.32813 4.42188,-7.32813 C3.72396,-7.32813 3.14323,-7.0651 2.67969,-6.53906 C2.21615,-6.01302 1.98438,-5.21875 1.98438,-4.15625 M10.0625,3.1875 L10.0625,-8.29688 L11.3438,-8.29688 L11.3438,-7.21875 C11.6458,-7.64583 11.987,-7.96354 12.3672,-8.17188 C12.7474,-8.38021 13.2083,-8.48438 13.75,-8.48438 C14.4583,-8.48438 15.0833,-8.30208 15.625,-7.9375 C16.1667,-7.57292 16.5755,-7.0599 16.8516,-6.39844 C17.1276,-5.73698 17.2656,-5.01042 17.2656,-4.21875 C17.2656,-3.36458 17.112,-2.59896 16.8047,-1.92188 C16.4974,-1.24479 16.0547,-0.723958 15.4766,-0.359375 C14.8984,0.00520833 14.2865,0.1875 13.6406,0.1875 C13.1719,0.1875 12.7526,0.0885417 12.3828,-0.109375 C12.013,-0.307292 11.7083,-0.557292 11.4688,-0.859375 L11.4688,3.1875 L10.0625,3.1875 M11.3281,-4.10938 C11.3281,-3.03646 11.5443,-2.24479 11.9766,-1.73438 C12.4089,-1.22396 12.9323,-0.96875 13.5469,-0.96875 C14.1719,-0.96875 14.7083,-1.23438 15.1563,-1.76563 C15.6042,-2.29688 15.8281,-3.11458 15.8281,-4.21875 C15.8281,-5.28125 15.6094,-6.07552 15.1719,-6.60156 C14.7344,-7.1276 14.2135,-7.39063 13.6094,-7.39063 C13.0156,-7.39063 12.487,-7.10938 12.0234,-6.54688 C11.5599,-5.98438 11.3281,-5.17188 11.3281,-4.10938 M22.125,-1.26563 L22.3281,-0.015625 C21.9323,0.0677083 21.5781,0.109375 21.2656,0.109375 C20.7552,0.109375 20.3594,0.0286458 20.0781,-0.132813 C19.7969,-0.294271 19.599,-0.507813 19.4844,-0.773438 C19.3698,-1.03906 19.3125,-1.59375 19.3125,-2.4375 L19.3125,-7.20313 L18.2813,-7.20313 L18.2813,-8.29688 L19.3125,-8.29688 L19.3125,-10.3594 L20.7188,-11.2031 L20.7188,-8.29688 L22.125,-8.29688 L22.125,-7.20313 L20.7188,-7.20313 L20.7188,-2.35938 C20.7188,-1.95313 20.7422,-1.69271 20.7891,-1.57813 C20.8359,-1.46354 20.9167,-1.3724 21.0313,-1.30469 C21.1458,-1.23698 21.3073,-1.20313 21.5156,-1.20313 C21.6719,-1.20313 21.875,-1.22396 22.125,-1.26563 M21.75,3.1875 L21.75,2.17188 L31.0781,2.17188 L31.0781,3.1875 L21.75,3.1875 M36.9688,0 L35.5625,0 L35.5625,-8.96875 C35.2188,-8.64583 34.7734,-8.32292 34.2266,-8 C33.6797,-7.67708 33.1875,-7.43229 32.75,-7.26563 L32.75,-8.625 C33.5313,-9 34.2161,-9.45052 34.8047,-9.97656 C35.3932,-10.5026 35.8125,-11.0104 36.0625,-11.5 L36.9688,-11.5 L36.9688,0"/>
</g>

<g fill="#212121" fill-opacity="1" stroke="none" transform="matrix(0.731552,0,0,0.726997,221.905,364.823)"
font-family="MS Shell Dlg 2" font-size="8.25" font-weight="400" font-style="normal" 
>
<path vector-effect="none" fill-rule="evenodd" d="M0.53125,-4.15625 C0.53125,-5.6875 0.958333,-6.82292 1.8125,-7.5625 C2.53125,-8.17708 3.40104,-8.48438 4.42188,-8.48438 C5.56771,-8.48438 6.5026,-8.11198 7.22656,-7.36719 C7.95052,-6.6224 8.3125,-5.58854 8.3125,-4.26563 C8.3125,-3.20313 8.15104,-2.36458 7.82813,-1.75 C7.50521,-1.13542 7.03906,-0.658854 6.42969,-0.320313 C5.82031,0.0182292 5.15104,0.1875 4.42188,0.1875 C3.26563,0.1875 2.32813,-0.184896 1.60938,-0.929688 C0.890625,-1.67448 0.53125,-2.75 0.53125,-4.15625 M1.98438,-4.15625 C1.98438,-3.09375 2.21615,-2.29688 2.67969,-1.76563 C3.14323,-1.23438 3.72396,-0.96875 4.42188,-0.96875 C5.11979,-0.96875 5.70052,-1.23438 6.16406,-1.76563 C6.6276,-2.29688 6.85938,-3.10938 6.85938,-4.20313 C6.85938,-5.22396 6.6276,-6 6.16406,-6.53125 C5.70052,-7.0625 5.11979,-7.32813 4.42188,-7.32813 C3.72396,-7.32813 3.14323,-7.0651 2.67969,-6.53906 C2.21615,-6.01302 1.98438,-5.21875 1.98438,-4.15625 M10.0625,3.1875 L10.0625,-8.29688 L11.3438,-8.29688 L11.3438,-7.21875 C11.6458,-7.64583 11.987,-7.96354 12.3672,-8.17188 C12.7474,-8.38021 13.2083,-8.48438 13.75,-8.48438 C14.4583,-8.48438 15.0833,-8.30208 15.625,-7.9375 C16.1667,-7.57292 16.5755,-7.0599 16.8516,-6.39844 C17.1276,-5.73698 17.2656,-5.01042 17.2656,-4.21875 C17.2656,-3.36458 17.112,-2.59896 16.8047,-1.92188 C16.4974,-1.24479 16.0547,-0.723958 15.4766,-0.359375 C14.8984,0.00520833 14.2865,0.1875 13.6406,0.1875 C13.1719,0.1875 12.7526,0.0885417 12.3828,-0.109375 C12.013,-0.307292 11.7083,-0.557292 11.4688,-0.859375 L11.4688,3.1875 L10.0625,3.1875 M11.3281,-4.10938 C11.3281,-3.03646 11.5443,-2.24479 11.9766,-1.73438 C12.4089,-1.22396 12.9323,-0.96875 13.5469,-0.96875 C14.1719,-0.96875 14.7083,-1.23438 15.1563,-1.76563 C15.6042,-2.29688 15.8281,-3.11458 15.8281,-4.21875 C15.8281,-5.28125 15.6094,-6.07552 15.1719,-6.60156 C14.7344,-7.1276 14.2135,-7.39063 13.6094,-7.39063 C13.0156,-7.39063 12.487,-7.10938 12.0234,-6.54688 C11.5599,-5.98438 11.3281,-5.17188 11.3281,-4.10938 M22.125,-1.26563 L22.3281,-0.015625 C21.9323,0.0677083 21.5781,0.109375 21.2656,0.109375 C20.7552,0.109375 20.3594,0.0286458 20.0781,-0.132813 C19.7969,-0.294271 19.599,-0.507813 19.4844,-0.773438 C19.3698,-1.03906 19.3125,-1.59375 19.3125,-2.4375 L19.3125,-7.20313 L18.2813,-7.20313 L18.2813,-8.29688 L19.3125,-8.29688 L19.3125,-10.3594 L20.7188,-11.2031 L20.7188,-8.29688 L22.125,-8.29688 L22.125,-7.20313 L20.7188,-7.20313 L20.7188,-2.35938 C20.7188,-1.95313 20.7422,-1.69271 20.7891,-1.57813 C20.8359,-1.46354 20.9167,-1.3724 21.0313,-1.30469 C21.1458,-1.23698 21.3073,-1.20313 21.5156,-1.20313 C21.6719,-1.20313 21.875,-1.22396 22.125,-1.26563 M21.75,3.1875 L21.75,2.17188 L31.0781,2.17188 L31.0781,3.1875 L21.75,3.1875 M39.0625,-1.35938 L39.0625,0 L31.4844,0 C31.474,-0.34375 31.5313,-0.671875 31.6563,-0.984375 C31.8438,-1.49479 32.151,-2 32.5781,-2.5 C33.0052,-3 33.6198,-3.57813 34.4219,-4.23438 C35.6615,-5.25521 36.5,-6.0651 36.9375,-6.66406 C37.375,-7.26302 37.5938,-7.82813 37.5938,-8.35938 C37.5938,-8.91146 37.3958,-9.38021 37,-9.76563 C36.6042,-10.151 36.0833,-10.3438 35.4375,-10.3438 C34.7604,-10.3438 34.2188,-10.1406 33.8125,-9.73438 C33.4063,-9.32813 33.2031,-8.76563 33.2031,-8.04688 L31.75,-8.1875 C31.8542,-9.27083 32.2292,-10.0938 32.875,-10.6563 C33.5208,-11.2188 34.3854,-11.5 35.4688,-11.5 C36.5729,-11.5 37.4453,-11.1953 38.0859,-10.5859 C38.7266,-9.97656 39.0469,-9.22396 39.0469,-8.32813 C39.0469,-7.86979 38.9531,-7.41927 38.7656,-6.97656 C38.5781,-6.53385 38.2656,-6.06771 37.8281,-5.57813 C37.3906,-5.08854 36.6667,-4.41667 35.6563,-3.5625 C34.8125,-2.85417 34.2708,-2.3724 34.0313,-2.11719 C33.7917,-1.86198 33.5938,-1.60938 33.4375,-1.35938 L39.0625,-1.35938"/>
</g>

<g fill="#212121" fill-opacity="1" stroke="#212121" stroke-opacity="1" stroke-width="0.666667" stroke-linecap="square" stroke-linejoin="round" transform="matrix(0.731552,0,0,0.726997,-43.9538,-11.6647)"
font-family="MS Shell Dlg 2" font-size="8.25" font-weight="400" font-style="normal" 
>
<polyline fill="none" vector-effect="none" points="120,497 120,55 " />
<polyline fill="none" vector-effect="none" points="427,497 427,55 " />
<polyline fill="none" vector-effect="none" points="120,497 124.42,497 " />
<polyline fill="none" vector-effect="none" points="120,404.917 124.42,404.917 " />
<polyline fill="none" vector-effect="none" points="120,312.833 124.42,312.833 " />
<polyline fill="none" vector-effect="none" points="120,220.75 124.42,220.75 " />
<polyline fill="none" vector-effect="none" points="120,128.667 124.42,128.667 " />
<polyline fill="none" vector-effect="none" points="427,497 422.58,497 " />
<polyline fill="none" vector-effect="none" points="427,404.917 422.58,404.917 " />
<polyline fill="none" vector-effect="none" points="427,312.833 422.58,312.833 " />
<polyline fill="none" vector-effect="none" points="427,220.75 422.58,220.75 " />
<polyline fill="none" vector-effect="none" points="427,128.667 422.58,128.667 " />
</g>

<g fill="#212121" fill-opacity="1" stroke="none" transform="matrix(0.731552,0,0,0.726997,23.4466,353.651)"
font-family="MS Shell Dlg 2" font-size="8.25" font-weight="400" font-style="normal" 
>
<path vector-effect="none" fill-rule="evenodd" d="M8.0625,-1.35938 L8.0625,0 L0.484375,0 C0.473958,-0.34375 0.53125,-0.671875 0.65625,-0.984375 C0.84375,-1.49479 1.15104,-2 1.57813,-2.5 C2.00521,-3 2.61979,-3.57813 3.42188,-4.23438 C4.66146,-5.25521 5.5,-6.0651 5.9375,-6.66406 C6.375,-7.26302 6.59375,-7.82813 6.59375,-8.35938 C6.59375,-8.91146 6.39583,-9.38021 6,-9.76563 C5.60417,-10.151 5.08333,-10.3438 4.4375,-10.3438 C3.76042,-10.3438 3.21875,-10.1406 2.8125,-9.73438 C2.40625,-9.32813 2.20313,-8.76563 2.20313,-8.04688 L0.75,-8.1875 C0.854167,-9.27083 1.22917,-10.0938 1.875,-10.6563 C2.52083,-11.2188 3.38542,-11.5 4.46875,-11.5 C5.57292,-11.5 6.44531,-11.1953 7.08594,-10.5859 C7.72656,-9.97656 8.04688,-9.22396 8.04688,-8.32813 C8.04688,-7.86979 7.95313,-7.41927 7.76563,-6.97656 C7.57813,-6.53385 7.26563,-6.06771 6.82813,-5.57813 C6.39063,-5.08854 5.66667,-4.41667 4.65625,-3.5625 C3.8125,-2.85417 3.27083,-2.3724 3.03125,-2.11719 C2.79167,-1.86198 2.59375,-1.60938 2.4375,-1.35938 L8.0625,-1.35938 M10.4531,0 L10.4531,-1.60938 L12.0625,-1.60938 L12.0625,0 L10.4531,0 M13.7656,-9.95313 L13.7656,-11.3125 L21.1719,-11.3125 L21.1719,-10.2188 C20.4427,-9.4375 19.7214,-8.40365 19.0078,-7.11719 C18.2943,-5.83073 17.7396,-4.51042 17.3438,-3.15625 C17.0625,-2.19792 16.8854,-1.14583 16.8125,0 L15.3594,0 C15.3802,-0.90625 15.5599,-1.9974 15.8984,-3.27344 C16.237,-4.54948 16.7214,-5.77865 17.3516,-6.96094 C17.9818,-8.14323 18.6563,-9.14063 19.375,-9.95313 L13.7656,-9.95313"/>
</g>

<g fill="#212121" fill-opacity="1" stroke="none" transform="matrix(0.731552,0,0,0.726997,16.8626,286.707)"
font-family="MS Shell Dlg 2" font-size="8.25" font-weight="400" font-style="normal" 
>
<path vector-effect="none" fill-rule="evenodd" d="M8.0625,-1.35938 L8.0625,0 L0.484375,0 C0.473958,-0.34375 0.53125,-0.671875 0.65625,-0.984375 C0.84375,-1.49479 1.15104,-2 1.57813,-2.5 C2.00521,-3 2.61979,-3.57813 3.42188,-4.23438 C4.66146,-5.25521 5.5,-6.0651 5.9375,-6.66406 C6.375,-7.26302 6.59375,-7.82813 6.59375,-8.35938 C6.59375,-8.91146 6.39583,-9.38021 6,-9.76563 C5.60417,-10.151 5.08333,-10.3438 4.4375,-10.3438 C3.76042,-10.3438 3.21875,-10.1406 2.8125,-9.73438 C2.40625,-9.32813 2.20313,-8.76563 2.20313,-8.04688 L0.75,-8.1875 C0.854167,-9.27083 1.22917,-10.0938 1.875,-10.6563 C2.52083,-11.2188 3.38542,-11.5 4.46875,-11.5 C5.57292,-11.5 6.44531,-11.1953 7.08594,-10.5859 C7.72656,-9.97656 8.04688,-9.22396 8.04688,-8.32813 C8.04688,-7.86979 7.95313,-7.41927 7.76563,-6.97656 C7.57813,-6.53385 7.26563,-6.06771 6.82813,-5.57813 C6.39063,-5.08854 5.66667,-4.41667 4.65625,-3.5625 C3.8125,-2.85417 3.27083,-2.3724 3.03125,-2.11719 C2.79167,-1.86198 2.59375,-1.60938 2.4375,-1.35938 L8.0625,-1.35938 M10.4531,0 L10.4531,-1.60938 L12.0625,-1.60938 L12.0625,0 L10.4531,0 M13.7656,-9.95313 L13.7656,-11.3125 L21.1719,-11.3125 L21.1719,-10.2188 C20.4427,-9.4375 19.7214,-8.40365 19.0078,-7.11719 C18.2943,-5.83073 17.7396,-4.51042 17.3438,-3.15625 C17.0625,-2.19792 16.8854,-1.14583 16.8125,0 L15.3594,0 C15.3802,-0.90625 15.5599,-1.9974 15.8984,-3.27344 C16.237,-4.54948 16.7214,-5.77865 17.3516,-6.96094 C17.9818,-8.14323 18.6563,-9.14063 19.375,-9.95313 L13.7656,-9.95313 M22.6719,-3 L24.1406,-3.125 C24.2552,-2.40625 24.5104,-1.86719 24.9063,-1.50781 C25.3021,-1.14844 25.7813,-0.96875 26.3438,-0.96875 C27.0208,-0.96875 27.5938,-1.22396 28.0625,-1.73438 C28.5313,-2.24479 28.7656,-2.92188 28.7656,-3.76563 C28.7656,-4.56771 28.5417,-5.20052 28.0938,-5.66406 C27.6458,-6.1276 27.0573,-6.35938 26.3281,-6.35938 C25.8698,-6.35938 25.4583,-6.25521 25.0938,-6.04688 C24.7292,-5.83854 24.4427,-5.57292 24.2344,-5.25 L22.9219,-5.42188 L24.0313,-11.2969 L29.7188,-11.2969 L29.7188,-9.95313 L25.1563,-9.95313 L24.5313,-6.875 C25.2188,-7.35417 25.9427,-7.59375 26.7031,-7.59375 C27.7031,-7.59375 28.5469,-7.2474 29.2344,-6.55469 C29.9219,-5.86198 30.2656,-4.97396 30.2656,-3.89063 C30.2656,-2.84896 29.9635,-1.95313 29.3594,-1.20313 C28.6198,-0.265625 27.6146,0.203125 26.3438,0.203125 C25.3021,0.203125 24.4531,-0.0911458 23.7969,-0.679688 C23.1406,-1.26823 22.7656,-2.04167 22.6719,-3 "/>
</g>

<g fill="#212121" fill-opacity="1" stroke="none" transform="matrix(0.731552,0,0,0.726997,23.4466,219.763)"
font-family="MS Shell Dlg 2" font-size="8.25" font-weight="400" font-style="normal" 
>
<path vector-effect="none" fill-rule="evenodd" d="M8.0625,-1.35938 L8.0625,0 L0.484375,0 C0.473958,-0.34375 0.53125,-0.671875 0.65625,-0.984375 C0.84375,-1.49479 1.15104,-2 1.57813,-2.5 C2.00521,-3 2.61979,-3.57813 3.42188,-4.23438 C4.66146,-5.25521 5.5,-6.0651 5.9375,-6.66406 C6.375,-7.26302 6.59375,-7.82813 6.59375,-8.35938 C6.59375,-8.91146 6.39583,-9.38021 6,-9.76563 C5.60417,-10.151 5.08333,-10.3438 4.4375,-10.3438 C3.76042,-10.3438 3.21875,-10.1406 2.8125,-9.73438 C2.40625,-9.32813 2.20313,-8.76563 2.20313,-8.04688 L0.75,-8.1875 C0.854167,-9.27083 1.22917,-10.0938 1.875,-10.6563 C2.52083,-11.2188 3.38542,-11.5 4.46875,-11.5 C5.57292,-11.5 6.44531,-11.1953 7.08594,-10.5859 C7.72656,-9.97656 8.04688,-9.22396 8.04688,-8.32813 C8.04688,-7.86979 7.95313,-7.41927 7.76563,-6.97656 C7.57813,-6.53385 7.26563,-6.06771 6.82813,-5.57813 C6.39063,-5.08854 5.66667,-4.41667 4.65625,-3.5625 C3.8125,-2.85417 3.27083,-2.3724 3.03125,-2.11719 C2.79167,-1.86198 2.59375,-1.60938 2.4375,-1.35938 L8.0625,-1.35938 M10.4531,0 L10.4531,-1.60938 L12.0625,-1.60938 L12.0625,0 L10.4531,0 M15.8281,-6.21875 C15.2448,-6.42708 14.8125,-6.72917 14.5313,-7.125 C14.25,-7.52083 14.1094,-7.99479 14.1094,-8.54688 C14.1094,-9.38021 14.4089,-10.0807 15.0078,-10.6484 C15.6068,-11.2161 16.4063,-11.5 17.4063,-11.5 C18.4063,-11.5 19.2109,-11.2109 19.8203,-10.6328 C20.4297,-10.0547 20.7344,-9.34896 20.7344,-8.51563 C20.7344,-7.98438 20.5938,-7.52083 20.3125,-7.125 C20.0313,-6.72917 19.6094,-6.42708 19.0469,-6.21875 C19.7448,-5.98958 20.2786,-5.61979 20.6484,-5.10938 C21.0182,-4.59896 21.2031,-3.98958 21.2031,-3.28125 C21.2031,-2.30208 20.8568,-1.47656 20.1641,-0.804688 C19.4714,-0.132813 18.5573,0.203125 17.4219,0.203125 C16.2969,0.203125 15.388,-0.132813 14.6953,-0.804688 C14.0026,-1.47656 13.6563,-2.3125 13.6563,-3.3125 C13.6563,-4.0625 13.8438,-4.6875 14.2188,-5.1875 C14.5938,-5.6875 15.1302,-6.03125 15.8281,-6.21875 M15.5469,-8.59375 C15.5469,-8.05208 15.7214,-7.60938 16.0703,-7.26563 C16.4193,-6.92188 16.875,-6.75 17.4375,-6.75 C17.9792,-6.75 18.4219,-6.92188 18.7656,-7.26563 C19.1094,-7.60938 19.2813,-8.02604 19.2813,-8.51563 C19.2813,-9.03646 19.1042,-9.47135 18.75,-9.82031 C18.3958,-10.1693 17.9531,-10.3438 17.4219,-10.3438 C16.8802,-10.3438 16.4323,-10.1719 16.0781,-9.82813 C15.724,-9.48438 15.5469,-9.07292 15.5469,-8.59375 M15.0938,-3.3125 C15.0938,-2.90625 15.1901,-2.51563 15.3828,-2.14063 C15.5755,-1.76563 15.8594,-1.47656 16.2344,-1.27344 C16.6094,-1.07031 17.0104,-0.96875 17.4375,-0.96875 C18.1146,-0.96875 18.6719,-1.1849 19.1094,-1.61719 C19.5469,-2.04948 19.7656,-2.59896 19.7656,-3.26563 C19.7656,-3.94271 19.5391,-4.5026 19.0859,-4.94531 C18.6328,-5.38802 18.0677,-5.60938 17.3906,-5.60938 C16.7344,-5.60938 16.1875,-5.39063 15.75,-4.95313 C15.3125,-4.51563 15.0938,-3.96875 15.0938,-3.3125 "/>
</g>

<g fill="#212121" fill-opacity="1" stroke="none" transform="matrix(0.731552,0,0,0.726997,16.8626,152.818)"
font-family="MS Shell Dlg 2" font-size="8.25" font-weight="400" font-style="normal" 
>
<path vector-effect="none" fill-rule="evenodd" d="M8.0625,-1.35938 L8.0625,0 L0.484375,0 C0.473958,-0.34375 0.53125,-0.671875 0.65625,-0.984375 C0.84375,-1.49479 1.15104,-2 1.57813,-2.5 C2.00521,-3 2.61979,-3.57813 3.42188,-4.23438 C4.66146,-5.25521 5.5,-6.0651 5.9375,-6.66406 C6.375,-7.26302 6.59375,-7.82813 6.59375,-8.35938 C6.59375,-8.91146 6.39583,-9.38021 6,-9.76563 C5.60417,-10.151 5.08333,-10.3438 4.4375,-10.3438 C3.76042,-10.3438 3.21875,-10.1406 2.8125,-9.73438 C2.40625,-9.32813 2.20313,-8.76563 2.20313,-8.04688 L0.75,-8.1875 C0.854167,-9.27083 1.22917,-10.0938 1.875,-10.6563 C2.52083,-11.2188 3.38542,-11.5 4.46875,-11.5 C5.57292,-11.5 6.44531,-11.1953 7.08594,-10.5859 C7.72656,-9.97656 8.04688,-9.22396 8.04688,-8.32813 C8.04688,-7.86979 7.95313,-7.41927 7.76563,-6.97656 C7.57813,-6.53385 7.26563,-6.06771 6.82813,-5.57813 C6.39063,-5.08854 5.66667,-4.41667 4.65625,-3.5625 C3.8125,-2.85417 3.27083,-2.3724 3.03125,-2.11719 C2.79167,-1.86198 2.59375,-1.60938 2.4375,-1.35938 L8.0625,-1.35938 M10.4531,0 L10.4531,-1.60938 L12.0625,-1.60938 L12.0625,0 L10.4531,0 M15.8281,-6.21875 C15.2448,-6.42708 14.8125,-6.72917 14.5313,-7.125 C14.25,-7.52083 14.1094,-7.99479 14.1094,-8.54688 C14.1094,-9.38021 14.4089,-10.0807 15.0078,-10.6484 C15.6068,-11.2161 16.4063,-11.5 17.4063,-11.5 C18.4063,-11.5 19.2109,-11.2109 19.8203,-10.6328 C20.4297,-10.0547 20.7344,-9.34896 20.7344,-8.51563 C20.7344,-7.98438 20.5938,-7.52083 20.3125,-7.125 C20.0313,-6.72917 19.6094,-6.42708 19.0469,-6.21875 C19.7448,-5.98958 20.2786,-5.61979 20.6484,-5.10938 C21.0182,-4.59896 21.2031,-3.98958 21.2031,-3.28125 C21.2031,-2.30208 20.8568,-1.47656 20.1641,-0.804688 C19.4714,-0.132813 18.5573,0.203125 17.4219,0.203125 C16.2969,0.203125 15.388,-0.132813 14.6953,-0.804688 C14.0026,-1.47656 13.6563,-2.3125 13.6563,-3.3125 C13.6563,-4.0625 13.8438,-4.6875 14.2188,-5.1875 C14.5938,-5.6875 15.1302,-6.03125 15.8281,-6.21875 M15.5469,-8.59375 C15.5469,-8.05208 15.7214,-7.60938 16.0703,-7.26563 C16.4193,-6.92188 16.875,-6.75 17.4375,-6.75 C17.9792,-6.75 18.4219,-6.92188 18.7656,-7.26563 C19.1094,-7.60938 19.2813,-8.02604 19.2813,-8.51563 C19.2813,-9.03646 19.1042,-9.47135 18.75,-9.82031 C18.3958,-10.1693 17.9531,-10.3438 17.4219,-10.3438 C16.8802,-10.3438 16.4323,-10.1719 16.0781,-9.82813 C15.724,-9.48438 15.5469,-9.07292 15.5469,-8.59375 M15.0938,-3.3125 C15.0938,-2.90625 15.1901,-2.51563 15.3828,-2.14063 C15.5755,-1.76563 15.8594,-1.47656 16.2344,-1.27344 C16.6094,-1.07031 17.0104,-0.96875 17.4375,-0.96875 C18.1146,-0.96875 18.6719,-1.1849 19.1094,-1.61719 C19.5469,-2.04948 19.7656,-2.59896 19.7656,-3.26563 C19.7656,-3.94271 19.5391,-4.5026 19.0859,-4.94531 C18.6328,-5.38802 18.0677,-5.60938 17.3906,-5.60938 C16.7344,-5.60938 16.1875,-5.39063 15.75,-4.95313 C15.3125,-4.51563 15.0938,-3.96875 15.0938,-3.3125 M22.6719,-3 L24.1406,-3.125 C24.2552,-2.40625 24.5104,-1.86719 24.9063,-1.50781 C25.3021,-1.14844 25.7813,-0.96875 26.3438,-0.96875 C27.0208,-0.96875 27.5938,-1.22396 28.0625,-1.73438 C28.5313,-2.24479 28.7656,-2.92188 28.7656,-3.76563 C28.7656,-4.56771 28.5417,-5.20052 28.0938,-5.66406 C27.6458,-6.1276 27.0573,-6.35938 26.3281,-6.35938 C25.8698,-6.35938 25.4583,-6.25521 25.0938,-6.04688 C24.7292,-5.83854 24.4427,-5.57292 24.2344,-5.25 L22.9219,-5.42188 L24.0313,-11.2969 L29.7188,-11.2969 L29.7188,-9.95313 L25.1563,-9.95313 L24.5313,-6.875 C25.2188,-7.35417 25.9427,-7.59375 26.7031,-7.59375 C27.7031,-7.59375 28.5469,-7.2474 29.2344,-6.55469 C29.9219,-5.86198 30.2656,-4.97396 30.2656,-3.89063 C30.2656,-2.84896 29.9635,-1.95313 29.3594,-1.20313 C28.6198,-0.265625 27.6146,0.203125 26.3438,0.203125 C25.3021,0.203125 24.4531,-0.0911458 23.7969,-0.679688 C23.1406,-1.26823 22.7656,-2.04167 22.6719,-3 "/>
</g>

<g fill="#212121" fill-opacity="1" stroke="none" transform="matrix(0.731552,0,0,0.726997,23.4466,85.8741)"
font-family="MS Shell Dlg 2" font-size="8.25" font-weight="400" font-style="normal" 
>
<path vector-effect="none" fill-rule="evenodd" d="M8.0625,-1.35938 L8.0625,0 L0.484375,0 C0.473958,-0.34375 0.53125,-0.671875 0.65625,-0.984375 C0.84375,-1.49479 1.15104,-2 1.57813,-2.5 C2.00521,-3 2.61979,-3.57813 3.42188,-4.23438 C4.66146,-5.25521 5.5,-6.0651 5.9375,-6.66406 C6.375,-7.26302 6.59375,-7.82813 6.59375,-8.35938 C6.59375,-8.91146 6.39583,-9.38021 6,-9.76563 C5.60417,-10.151 5.08333,-10.3438 4.4375,-10.3438 C3.76042,-10.3438 3.21875,-10.1406 2.8125,-9.73438 C2.40625,-9.32813 2.20313,-8.76563 2.20313,-8.04688 L0.75,-8.1875 C0.854167,-9.27083 1.22917,-10.0938 1.875,-10.6563 C2.52083,-11.2188 3.38542,-11.5 4.46875,-11.5 C5.57292,-11.5 6.44531,-11.1953 7.08594,-10.5859 C7.72656,-9.97656 8.04688,-9.22396 8.04688,-8.32813 C8.04688,-7.86979 7.95313,-7.41927 7.76563,-6.97656 C7.57813,-6.53385 7.26563,-6.06771 6.82813,-5.57813 C6.39063,-5.08854 5.66667,-4.41667 4.65625,-3.5625 C3.8125,-2.85417 3.27083,-2.3724 3.03125,-2.11719 C2.79167,-1.86198 2.59375,-1.60938 2.4375,-1.35938 L8.0625,-1.35938 M10.4531,0 L10.4531,-1.60938 L12.0625,-1.60938 L12.0625,0 L10.4531,0 M13.875,-2.65625 L15.2344,-2.78125 C15.349,-2.14583 15.5677,-1.6849 15.8906,-1.39844 C16.2135,-1.11198 16.625,-0.96875 17.125,-0.96875 C17.5625,-0.96875 17.9427,-1.06771 18.2656,-1.26563 C18.5885,-1.46354 18.8542,-1.72656 19.0625,-2.05469 C19.2708,-2.38281 19.4453,-2.82813 19.5859,-3.39063 C19.7266,-3.95313 19.7969,-4.52604 19.7969,-5.10938 C19.7969,-5.17188 19.7969,-5.26563 19.7969,-5.39063 C19.5156,-4.94271 19.1302,-4.58073 18.6406,-4.30469 C18.151,-4.02865 17.625,-3.89063 17.0625,-3.89063 C16.1146,-3.89063 15.3125,-4.23438 14.6563,-4.92188 C14,-5.60938 13.6719,-6.51563 13.6719,-7.64063 C13.6719,-8.79688 14.013,-9.72917 14.6953,-10.4375 C15.3776,-11.1458 16.2344,-11.5 17.2656,-11.5 C18.0156,-11.5 18.6979,-11.2995 19.3125,-10.8984 C19.9271,-10.4974 20.3958,-9.92708 20.7188,-9.1875 C21.0417,-8.44792 21.2031,-7.375 21.2031,-5.96875 C21.2031,-4.5 21.0443,-3.33333 20.7266,-2.46875 C20.4089,-1.60417 19.9349,-0.942708 19.3047,-0.484375 C18.6745,-0.0260417 17.9375,0.203125 17.0938,0.203125 C16.1979,0.203125 15.4661,-0.046875 14.8984,-0.546875 C14.3307,-1.04688 13.9896,-1.75 13.875,-2.65625 M19.6406,-7.70313 C19.6406,-8.51563 19.4245,-9.15885 18.9922,-9.63281 C18.5599,-10.1068 18.0417,-10.3438 17.4375,-10.3438 C16.8125,-10.3438 16.2682,-10.0885 15.8047,-9.57813 C15.3411,-9.06771 15.1094,-8.40625 15.1094,-7.59375 C15.1094,-6.86458 15.3307,-6.27083 15.7734,-5.8125 C16.2161,-5.35417 16.7604,-5.125 17.4063,-5.125 C18.0521,-5.125 18.5859,-5.35417 19.0078,-5.8125 C19.4297,-6.27083 19.6406,-6.90104 19.6406,-7.70313 "/>
</g>

<g fill="#212121" fill-opacity="1" stroke="none" transform="matrix(0,-0.726997,0.731552,0,10.2786,215.158)"
font-family="MS Shell Dlg 2" font-size="8.25" font-weight="400" font-style="normal" 
>
<path vector-effect="none" fill-rule="evenodd" d="M4.39063,-1.34375 L4.59375,-0.015625 C4.17708,0.0677083 3.80208,0.109375 3.46875,0.109375 C2.92708,0.109375 2.50781,0.0234375 2.21094,-0.148438 C1.91406,-0.320313 1.70313,-0.544271 1.57813,-0.820313 C1.45313,-1.09635 1.39063,-1.68229 1.39063,-2.57813 L1.39063,-7.65625 L0.296875,-7.65625 L0.296875,-8.8125 L1.39063,-8.8125 L1.39063,-11 L2.875,-11.8906 L2.875,-8.8125 L4.39063,-8.8125 L4.39063,-7.65625 L2.875,-7.65625 L2.875,-2.5 C2.875,-2.07292 2.90104,-1.79948 2.95313,-1.67969 C3.00521,-1.5599 3.09115,-1.46354 3.21094,-1.39063 C3.33073,-1.31771 3.50521,-1.28125 3.73438,-1.28125 C3.89063,-1.28125 4.10938,-1.30208 4.39063,-1.34375 M6.125,-10.4531 L6.125,-12.1719 L7.625,-12.1719 L7.625,-10.4531 L6.125,-10.4531 M6.125,0 L6.125,-8.8125 L7.625,-8.8125 L7.625,0 L6.125,0 M10.125,0 L10.125,-8.8125 L11.4531,-8.8125 L11.4531,-7.57813 C11.7344,-8.00521 12.1042,-8.35156 12.5625,-8.61719 C13.0208,-8.88281 13.5417,-9.01563 14.125,-9.01563 C14.7813,-9.01563 15.3177,-8.88021 15.7344,-8.60938 C16.151,-8.33854 16.4479,-7.95833 16.625,-7.46875 C17.3229,-8.5 18.2292,-9.01563 19.3438,-9.01563 C20.2188,-9.01563 20.8906,-8.77344 21.3594,-8.28906 C21.8281,-7.80469 22.0625,-7.05729 22.0625,-6.04688 L22.0625,0 L20.5781,0 L20.5781,-5.54688 C20.5781,-6.15104 20.5313,-6.58333 20.4375,-6.84375 C20.3438,-7.10417 20.1693,-7.3151 19.9141,-7.47656 C19.6589,-7.63802 19.3594,-7.71875 19.0156,-7.71875 C18.3906,-7.71875 17.875,-7.51302 17.4688,-7.10156 C17.0625,-6.6901 16.8594,-6.03125 16.8594,-5.125 L16.8594,0 L15.3594,0 L15.3594,-5.73438 C15.3594,-6.39063 15.237,-6.88542 14.9922,-7.21875 C14.7474,-7.55208 14.349,-7.71875 13.7969,-7.71875 C13.3802,-7.71875 12.9922,-7.60938 12.6328,-7.39063 C12.2734,-7.17188 12.013,-6.84896 11.8516,-6.42188 C11.6901,-5.99479 11.6094,-5.38021 11.6094,-4.57813 L11.6094,0 L10.125,0 M30.1563,-2.84375 L31.7031,-2.64063 C31.4531,-1.74479 31,-1.04688 30.3438,-0.546875 C29.6875,-0.046875 28.849,0.203125 27.8281,0.203125 C26.5365,0.203125 25.513,-0.195313 24.7578,-0.992188 C24.0026,-1.78906 23.625,-2.90104 23.625,-4.32813 C23.625,-5.81771 24.0052,-6.97135 24.7656,-7.78906 C25.526,-8.60677 26.5156,-9.01563 27.7344,-9.01563 C28.9219,-9.01563 29.888,-8.61458 30.6328,-7.8125 C31.3776,-7.01042 31.75,-5.88021 31.75,-4.42188 C31.75,-4.33854 31.7448,-4.20833 31.7344,-4.03125 L25.1719,-4.03125 C25.224,-3.0625 25.4974,-2.32031 25.9922,-1.80469 C26.487,-1.28906 27.099,-1.03125 27.8281,-1.03125 C28.3802,-1.03125 28.849,-1.17448 29.2344,-1.46094 C29.6198,-1.7474 29.9271,-2.20833 30.1563,-2.84375 M25.25,-5.25 L30.1719,-5.25 C30.1094,-5.98958 29.9219,-6.54688 29.6094,-6.92188 C29.1302,-7.49479 28.5104,-7.78125 27.75,-7.78125 C27.0729,-7.78125 26.5,-7.55208 26.0313,-7.09375 C25.5625,-6.63542 25.3021,-6.02083 25.25,-5.25 M40.9688,3.57813 C40.1458,2.53646 39.4505,1.31771 38.8828,-0.078125 C38.3151,-1.47396 38.0313,-2.91667 38.0313,-4.40625 C38.0313,-5.72917 38.2448,-6.98958 38.6719,-8.1875 C39.1719,-9.59375 39.9375,-10.9896 40.9688,-12.375 L42.0469,-12.375 C41.3802,-11.2292 40.9375,-10.4063 40.7188,-9.90625 C40.3854,-9.14583 40.1198,-8.34896 39.9219,-7.51563 C39.6823,-6.48438 39.5625,-5.44792 39.5625,-4.40625 C39.5625,-1.73958 40.3906,0.921875 42.0469,3.57813 L40.9688,3.57813 M44.125,0 L44.125,-8.8125 L45.4531,-8.8125 L45.4531,-7.57813 C45.7344,-8.00521 46.1042,-8.35156 46.5625,-8.61719 C47.0208,-8.88281 47.5417,-9.01563 48.125,-9.01563 C48.7813,-9.01563 49.3177,-8.88021 49.7344,-8.60938 C50.151,-8.33854 50.4479,-7.95833 50.625,-7.46875 C51.3229,-8.5 52.2292,-9.01563 53.3438,-9.01563 C54.2188,-9.01563 54.8906,-8.77344 55.3594,-8.28906 C55.8281,-7.80469 56.0625,-7.05729 56.0625,-6.04688 L56.0625,0 L54.5781,0 L54.5781,-5.54688 C54.5781,-6.15104 54.5313,-6.58333 54.4375,-6.84375 C54.3438,-7.10417 54.1693,-7.3151 53.9141,-7.47656 C53.6589,-7.63802 53.3594,-7.71875 53.0156,-7.71875 C52.3906,-7.71875 51.875,-7.51302 51.4688,-7.10156 C51.0625,-6.6901 50.8594,-6.03125 50.8594,-5.125 L50.8594,0 L49.3594,0 L49.3594,-5.73438 C49.3594,-6.39063 49.237,-6.88542 48.9922,-7.21875 C48.7474,-7.55208 48.349,-7.71875 47.7969,-7.71875 C47.3802,-7.71875 46.9922,-7.60938 46.6328,-7.39063 C46.2734,-7.17188 46.013,-6.84896 45.8516,-6.42188 C45.6901,-5.99479 45.6094,-5.38021 45.6094,-4.57813 L45.6094,0 L44.125,0 M57.5156,-2.625 L59,-2.85938 C59.0833,-2.26563 59.3151,-1.8125 59.6953,-1.5 C60.0755,-1.1875 60.6042,-1.03125 61.2813,-1.03125 C61.9688,-1.03125 62.4792,-1.17188 62.8125,-1.45313 C63.1458,-1.73438 63.3125,-2.0625 63.3125,-2.4375 C63.3125,-2.77083 63.1667,-3.03646 62.875,-3.23438 C62.6667,-3.35938 62.1563,-3.52604 61.3438,-3.73438 C60.25,-4.01563 59.4896,-4.25521 59.0625,-4.45313 C58.6354,-4.65104 58.3125,-4.92969 58.0938,-5.28906 C57.875,-5.64844 57.7656,-6.04167 57.7656,-6.46875 C57.7656,-6.86458 57.8568,-7.22917 58.0391,-7.5625 C58.2214,-7.89583 58.4688,-8.17708 58.7813,-8.40625 C59.0104,-8.57292 59.3255,-8.71615 59.7266,-8.83594 C60.1276,-8.95573 60.5573,-9.01563 61.0156,-9.01563 C61.7135,-9.01563 62.3229,-8.91667 62.8438,-8.71875 C63.3646,-8.52083 63.75,-8.25 64,-7.90625 C64.25,-7.5625 64.4219,-7.10938 64.5156,-6.54688 L63.0469,-6.34375 C62.9844,-6.79167 62.7943,-7.14323 62.4766,-7.39844 C62.1589,-7.65365 61.7083,-7.78125 61.125,-7.78125 C60.4375,-7.78125 59.9479,-7.66927 59.6563,-7.44531 C59.3646,-7.22135 59.2188,-6.95833 59.2188,-6.65625 C59.2188,-6.45833 59.2813,-6.28125 59.4063,-6.125 C59.5208,-5.96875 59.7083,-5.83854 59.9688,-5.73438 C60.125,-5.67188 60.5677,-5.54167 61.2969,-5.34375 C62.349,-5.0625 63.0833,-4.83333 63.5,-4.65625 C63.9167,-4.47917 64.2448,-4.21875 64.4844,-3.875 C64.724,-3.53125 64.8438,-3.10417 64.8438,-2.59375 C64.8438,-2.09375 64.6979,-1.6224 64.4063,-1.17969 C64.1146,-0.736979 63.6953,-0.395833 63.1484,-0.15625 C62.6016,0.0833333 61.9844,0.203125 61.2969,0.203125 C60.151,0.203125 59.276,-0.0364583 58.6719,-0.515625 C58.0677,-0.994792 57.6823,-1.69792 57.5156,-2.625 M68.0938,3.57813 L67.0313,3.57813 C68.6875,0.921875 69.5156,-1.73958 69.5156,-4.40625 C69.5156,-5.4375 69.3958,-6.46875 69.1563,-7.5 C68.9688,-8.32292 68.7031,-9.11979 68.3594,-9.89063 C68.151,-10.3906 67.7083,-11.2188 67.0313,-12.375 L68.0938,-12.375 C69.1354,-10.9896 69.9063,-9.59375 70.4063,-8.1875 C70.8333,-6.98958 71.0469,-5.72917 71.0469,-4.40625 C71.0469,-2.91667 70.7604,-1.47396 70.1875,-0.078125 C69.6146,1.31771 68.9167,2.53646 68.0938,3.57813 "/>
</g>

<g fill="#212121" fill-opacity="1" stroke="none" transform="matrix(0.731552,0,0,0.726997,41.6378,25.4122)"
font-family="MS Shell Dlg 2" font-size="8.25" font-weight="400" font-style="normal" 
>
<path vector-effect="none" fill-rule="evenodd" d="M2.35938,-0.46875 C2.35938,-0.552083 2.38542,-0.625 2.4375,-0.6875 L5.76563,-4 L2.4375,-7.32813 C2.38542,-7.38021 2.35938,-7.45313 2.35938,-7.54688 C2.35938,-7.61979 2.39063,-7.6901 2.45313,-7.75781 C2.51563,-7.82552 2.58854,-7.85938 2.67188,-7.85938 C2.74479,-7.85938 2.82813,-7.82813 2.92188,-7.76563 L6.23438,-4.45313 L9.53125,-7.76563 C9.61458,-7.82813 9.69271,-7.85938 9.76563,-7.85938 C9.84896,-7.85938 9.92188,-7.82813 9.98438,-7.76563 C10.0469,-7.70313 10.0781,-7.63021 10.0781,-7.54688 C10.0781,-7.45313 10.0521,-7.38021 10,-7.32813 L6.67188,-4 L10,-0.6875 C10.0521,-0.625 10.0781,-0.552083 10.0781,-0.46875 C10.0781,-0.375 10.0469,-0.296875 9.98438,-0.234375 C9.92188,-0.171875 9.84896,-0.140625 9.76563,-0.140625 C9.68229,-0.140625 9.60417,-0.182292 9.53125,-0.265625 L6.23438,-3.5625 L2.92188,-0.265625 C2.83854,-0.182292 2.75521,-0.140625 2.67188,-0.140625 C2.58854,-0.140625 2.51563,-0.174479 2.45313,-0.242188 C2.39063,-0.309896 2.35938,-0.385417 2.35938,-0.46875 "/>
</g>

<g fill="#212121" fill-opacity="1" stroke="none" transform="matrix(0.731552,0,0,0.726997,50.4165,25.4122)"
font-family="MS Shell Dlg 2" font-size="8.25" font-weight="400" font-style="normal" 
>
<path vector-effect="none" fill-rule="evenodd" d="M5.96875,0 L4.5625,0 L4.5625,-8.96875 C4.21875,-8.64583 3.77344,-8.32292 3.22656,-8 C2.67969,-7.67708 2.1875,-7.43229 1.75,-7.26563 L1.75,-8.625 C2.53125,-9 3.21615,-9.45052 3.80469,-9.97656 C4.39323,-10.5026 4.8125,-11.0104 5.0625,-11.5 L5.96875,-11.5 L5.96875,0 M9.67188,-5.65625 C9.67188,-7.01042 9.8099,-8.09896 10.0859,-8.92188 C10.362,-9.74479 10.776,-10.3802 11.3281,-10.8281 C11.8802,-11.276 12.5729,-11.5 13.4063,-11.5 C14.0208,-11.5 14.5599,-11.3776 15.0234,-11.1328 C15.487,-10.888 15.8698,-10.5313 16.1719,-10.0625 C16.474,-9.59375 16.7109,-9.02604 16.8828,-8.35938 C17.0547,-7.69271 17.1406,-6.79167 17.1406,-5.65625 C17.1406,-4.3125 17.0026,-3.22656 16.7266,-2.39844 C16.4505,-1.57031 16.0365,-0.929688 15.4844,-0.476563 C14.9323,-0.0234375 14.2396,0.203125 13.4063,0.203125 C12.3021,0.203125 11.4323,-0.197917 10.7969,-1 C10.0469,-1.94792 9.67188,-3.5 9.67188,-5.65625 M11.1094,-5.65625 C11.1094,-3.77083 11.3307,-2.51823 11.7734,-1.89844 C12.2161,-1.27865 12.7604,-0.96875 13.4063,-0.96875 C14.0521,-0.96875 14.5938,-1.28125 15.0313,-1.90625 C15.4688,-2.53125 15.6875,-3.78125 15.6875,-5.65625 C15.6875,-7.54167 15.4688,-8.79427 15.0313,-9.41406 C14.5938,-10.0339 14.0469,-10.3438 13.3906,-10.3438 C12.7448,-10.3438 12.2292,-10.0677 11.8438,-9.51563 C11.3542,-8.81771 11.1094,-7.53125 11.1094,-5.65625 "/>
</g>

<g fill="#212121" fill-opacity="1" stroke="none" transform="matrix(0.731552,0,0,0.726997,63.5844,19.5962)"
font-family="MS Shell Dlg 2" font-size="8.25" font-weight="400" font-style="normal" 
>
<path vector-effect="none" fill-rule="evenodd" d="M3.875,0 L3.875,-2.0625 L0.15625,-2.0625 L0.15625,-3.03125 L4.07813,-8.59375 L4.9375,-8.59375 L4.9375,-3.03125 L6.09375,-3.03125 L6.09375,-2.0625 L4.9375,-2.0625 L4.9375,0 L3.875,0 M3.875,-3.03125 L3.875,-6.89063 L1.1875,-3.03125 L3.875,-3.03125"/>
</g>

<g fill="#212121" fill-opacity="1" stroke="#212121" stroke-opacity="1" stroke-dasharray="10,6" stroke-dashoffset="0" stroke-width="0.666667" stroke-linecap="butt" stroke-linejoin="round" transform="matrix(0.731552,0,0,0.726997,-43.9538,-11.6647)"
font-family="MS Shell Dlg 2" font-size="8.25" font-weight="400" font-style="normal" 
>
<polyline fill="none" vector-effect="none" points="163.582,117.248 163.582,92.22 " />
<polyline fill="none" vector-effect="none" points="273.5,409.295 273.5,394.916 " />
<polyline fill="none" vector-effect="none" points="383.418,102.359 383.418,82.4408 " />
<polyline fill="none" vector-effect="none" points="163.582,152.24 163.582,135.182 " />
<polyline fill="none" vector-effect="none" points="273.5,470.406 273.5,456.414 " />
<polyline fill="none" vector-effect="none" points="383.418,159.423 383.418,143.51 " />
</g>

<g fill="#212121" fill-opacity="1" stroke="#212121" stroke-opacity="1" stroke-width="0.666667" stroke-linecap="butt" stroke-linejoin="round" transform="matrix(0.731552,0,0,0.726997,-43.9538,-11.6647)"
font-family="MS Shell Dlg 2" font-size="8.25" font-weight="400" font-style="normal" 
>
<polyline fill="none" vector-effect="none" points="151.217,92.22 175.948,92.22 " />
<polyline fill="none" vector-effect="none" points="261.134,394.916 285.866,394.916 " />
<polyline fill="none" vector-effect="none" points="371.052,82.4408 395.783,82.4408 " />
<polyline fill="none" vector-effect="none" points="151.217,152.24 175.948,152.24 " />
<polyline fill="none" vector-effect="none" points="261.134,470.406 285.866,470.406 " />
<polyline fill="none" vector-effect="none" points="371.052,159.423 395.783,159.423 " />
</g>

<g fill="none" stroke="#1171be" stroke-opacity="1" stroke-width="0.666667" stroke-linecap="butt" stroke-linejoin="round" transform="matrix(0.731552,0,0,0.726997,-43.9538,-11.6647)"
font-family="MS Shell Dlg 2" font-size="8.25" font-weight="400" font-style="normal" 
>
<polyline fill="none" vector-effect="none" points="138.851,135.182 138.851,117.248 188.314,117.248 188.314,135.182 138.851,135.182 " />
<polyline fill="none" vector-effect="none" points="248.769,456.414 248.769,409.295 298.231,409.295 298.231,456.414 248.769,456.414 " />
<polyline fill="none" vector-effect="none" points="358.686,143.51 358.686,102.359 408.149,102.359 408.149,143.51 358.686,143.51 " />
</g>

<g fill="#dd5400" fill-opacity="1" stroke="#dd5400" stroke-opacity="1" stroke-width="0.666667" stroke-linecap="butt" stroke-linejoin="round" transform="matrix(0.731552,0,0,0.726997,-43.9538,-11.6647)"
font-family="MS Shell Dlg 2" font-size="8.25" font-weight="400" font-style="normal" 
>
<polyline fill="none" vector-effect="none" points="138.851,125.72 188.314,125.72 " />
<polyline fill="none" vector-effect="none" points="248.769,431.989 298.231,431.989 " />
<polyline fill="none" vector-effect="none" points="358.686,120.619 408.149,120.619 " />
</g>

<g fill="none" stroke="#ff0000" stroke-opacity="1" stroke-width="2" stroke-linecap="butt" stroke-linejoin="miter" stroke-miterlimit="2" transform="matrix(0.731552,0,0,0.726997,-43.9538,-11.6647)"
font-family="MS Shell Dlg 2" font-size="8.25" font-weight="400" font-style="normal" 
>
<path vector-effect="none" fill-rule="evenodd" d="M158.249,125.053 L163.582,132.147 L168.916,125.053 L163.582,117.96 L158.249,125.053"/>
<path vector-effect="none" fill-rule="evenodd" d="M268.167,432.63 L273.5,439.723 L278.833,432.63 L273.5,425.537 L268.167,432.63"/>
<path vector-effect="none" fill-rule="evenodd" d="M378.084,121.937 L383.418,129.031 L388.751,121.937 L383.418,114.844 L378.084,121.937"/>
</g>

<g fill="#ffffff" fill-opacity="1" stroke="none" transform="matrix(7.31552e-05,0,0,7.26997e-05,-43.9538,-11.6647)"
font-family="MS Shell Dlg 2" font-size="8.25" font-weight="400" font-style="normal" 
>
<path vector-effect="none" fill-rule="evenodd" d="M5.25e+06,550000 L5.25e+06,4.97e+06 L8.33e+06,4.97e+06 L8.33e+06,550000 L5.25e+06,550000"/>
</g>

<g fill="#212121" fill-opacity="1" stroke="#212121" stroke-opacity="1" stroke-width="0.666667" stroke-linecap="square" stroke-linejoin="round" transform="matrix(0.731552,0,0,0.726997,-43.9538,-11.6647)"
font-family="MS Shell Dlg 2" font-size="8.25" font-weight="400" font-style="normal" 
>
<polyline fill="none" vector-effect="none" points="525,497 833,497 " />
<polyline fill="none" vector-effect="none" points="525,54.9998 833,54.9998 " />
<polyline fill="none" vector-effect="none" points="575.086,497 575.086,492.58 " />
<polyline fill="none" vector-effect="none" points="575.086,59.4198 575.086,54.9998 " />
<polyline fill="none" vector-effect="none" points="782.914,497 782.914,492.58 " />
<polyline fill="none" vector-effect="none" points="782.914,59.4198 782.914,54.9998 " />
</g>

<g fill="#212121" fill-opacity="1" stroke="none" transform="matrix(0.731552,0,0,0.726997,362.121,364.823)"
font-family="MS Shell Dlg 2" font-size="8.25" font-weight="400" font-style="normal" 
>
<path vector-effect="none" fill-rule="evenodd" d="M0.53125,-4.15625 C0.53125,-5.6875 0.958333,-6.82292 1.8125,-7.5625 C2.53125,-8.17708 3.40104,-8.48438 4.42188,-8.48438 C5.56771,-8.48438 6.5026,-8.11198 7.22656,-7.36719 C7.95052,-6.6224 8.3125,-5.58854 8.3125,-4.26563 C8.3125,-3.20313 8.15104,-2.36458 7.82813,-1.75 C7.50521,-1.13542 7.03906,-0.658854 6.42969,-0.320313 C5.82031,0.0182292 5.15104,0.1875 4.42188,0.1875 C3.26563,0.1875 2.32813,-0.184896 1.60938,-0.929688 C0.890625,-1.67448 0.53125,-2.75 0.53125,-4.15625 M1.98438,-4.15625 C1.98438,-3.09375 2.21615,-2.29688 2.67969,-1.76563 C3.14323,-1.23438 3.72396,-0.96875 4.42188,-0.96875 C5.11979,-0.96875 5.70052,-1.23438 6.16406,-1.76563 C6.6276,-2.29688 6.85938,-3.10938 6.85938,-4.20313 C6.85938,-5.22396 6.6276,-6 6.16406,-6.53125 C5.70052,-7.0625 5.11979,-7.32813 4.42188,-7.32813 C3.72396,-7.32813 3.14323,-7.0651 2.67969,-6.53906 C2.21615,-6.01302 1.98438,-5.21875 1.98438,-4.15625 M10.0625,3.1875 L10.0625,-8.29688 L11.3438,-8.29688 L11.3438,-7.21875 C11.6458,-7.64583 11.987,-7.96354 12.3672,-8.17188 C12.7474,-8.38021 13.2083,-8.48438 13.75,-8.48438 C14.4583,-8.48438 15.0833,-8.30208 15.625,-7.9375 C16.1667,-7.57292 16.5755,-7.0599 16.8516,-6.39844 C17.1276,-5.73698 17.2656,-5.01042 17.2656,-4.21875 C17.2656,-3.36458 17.112,-2.59896 16.8047,-1.92188 C16.4974,-1.24479 16.0547,-0.723958 15.4766,-0.359375 C14.8984,0.00520833 14.2865,0.1875 13.6406,0.1875 C13.1719,0.1875 12.7526,0.0885417 12.3828,-0.109375 C12.013,-0.307292 11.7083,-0.557292 11.4688,-0.859375 L11.4688,3.1875 L10.0625,3.1875 M11.3281,-4.10938 C11.3281,-3.03646 11.5443,-2.24479 11.9766,-1.73438 C12.4089,-1.22396 12.9323,-0.96875 13.5469,-0.96875 C14.1719,-0.96875 14.7083,-1.23438 15.1563,-1.76563 C15.6042,-2.29688 15.8281,-3.11458 15.8281,-4.21875 C15.8281,-5.28125 15.6094,-6.07552 15.1719,-6.60156 C14.7344,-7.1276 14.2135,-7.39063 13.6094,-7.39063 C13.0156,-7.39063 12.487,-7.10938 12.0234,-6.54688 C11.5599,-5.98438 11.3281,-5.17188 11.3281,-4.10938 M22.125,-1.26563 L22.3281,-0.015625 C21.9323,0.0677083 21.5781,0.109375 21.2656,0.109375 C20.7552,0.109375 20.3594,0.0286458 20.0781,-0.132813 C19.7969,-0.294271 19.599,-0.507813 19.4844,-0.773438 C19.3698,-1.03906 19.3125,-1.59375 19.3125,-2.4375 L19.3125,-7.20313 L18.2813,-7.20313 L18.2813,-8.29688 L19.3125,-8.29688 L19.3125,-10.3594 L20.7188,-11.2031 L20.7188,-8.29688 L22.125,-8.29688 L22.125,-7.20313 L20.7188,-7.20313 L20.7188,-2.35938 C20.7188,-1.95313 20.7422,-1.69271 20.7891,-1.57813 C20.8359,-1.46354 20.9167,-1.3724 21.0313,-1.30469 C21.1458,-1.23698 21.3073,-1.20313 21.5156,-1.20313 C21.6719,-1.20313 21.875,-1.22396 22.125,-1.26563 M21.75,3.1875 L21.75,2.17188 L31.0781,2.17188 L31.0781,3.1875 L21.75,3.1875 M31.6719,-3.03125 L33.0781,-3.21875 C33.2448,-2.41667 33.5208,-1.84115 33.9063,-1.49219 C34.2917,-1.14323 34.7656,-0.96875 35.3281,-0.96875 C35.9844,-0.96875 36.5417,-1.19792 37,-1.65625 C37.4583,-2.11458 37.6875,-2.68229 37.6875,-3.35938 C37.6875,-4.00521 37.4766,-4.53646 37.0547,-4.95313 C36.6328,-5.36979 36.0938,-5.57813 35.4375,-5.57813 C35.1771,-5.57813 34.849,-5.52604 34.4531,-5.42188 L34.6094,-6.65625 C34.7031,-6.64583 34.776,-6.64063 34.8281,-6.64063 C35.4323,-6.64063 35.974,-6.79688 36.4531,-7.10938 C36.9323,-7.42188 37.1719,-7.90625 37.1719,-8.5625 C37.1719,-9.07292 36.9974,-9.4974 36.6484,-9.83594 C36.2995,-10.1745 35.849,-10.3438 35.2969,-10.3438 C34.7448,-10.3438 34.2865,-10.1719 33.9219,-9.82813 C33.5573,-9.48438 33.3229,-8.96875 33.2188,-8.28125 L31.8125,-8.53125 C31.9896,-9.47917 32.3828,-10.2109 32.9922,-10.7266 C33.6016,-11.2422 34.3594,-11.5 35.2656,-11.5 C35.8906,-11.5 36.4661,-11.3672 36.9922,-11.1016 C37.5182,-10.8359 37.9193,-10.4714 38.1953,-10.0078 C38.4714,-9.54427 38.6094,-9.05208 38.6094,-8.53125 C38.6094,-8.03125 38.4766,-7.57813 38.2109,-7.17188 C37.9453,-6.76563 37.5521,-6.44271 37.0313,-6.20313 C37.7083,-6.04688 38.2344,-5.72396 38.6094,-5.23438 C38.9844,-4.74479 39.1719,-4.13021 39.1719,-3.39063 C39.1719,-2.39063 38.8073,-1.54167 38.0781,-0.84375 C37.349,-0.145833 36.4271,0.203125 35.3125,0.203125 C34.3125,0.203125 33.4792,-0.0963542 32.8125,-0.695313 C32.1458,-1.29427 31.7656,-2.07292 31.6719,-3.03125 "/>
</g>

<g fill="#212121" fill-opacity="1" stroke="none" transform="matrix(0.731552,0,0,0.726997,517.815,364.823)"
font-family="MS Shell Dlg 2" font-size="8.25" font-weight="400" font-style="normal" 
>
<path vector-effect="none" fill-rule="evenodd" d="M1.39063,0 L1.39063,-7.20313 L0.15625,-7.20313 L0.15625,-8.29688 L1.39063,-8.29688 L1.39063,-9.1875 C1.39063,-9.73958 1.44271,-10.151 1.54688,-10.4219 C1.68229,-10.7865 1.91927,-11.0833 2.25781,-11.3125 C2.59635,-11.5417 3.07292,-11.6563 3.6875,-11.6563 C4.08333,-11.6563 4.52083,-11.6094 5,-11.5156 L4.79688,-10.2813 C4.50521,-10.3333 4.22917,-10.3594 3.96875,-10.3594 C3.54167,-10.3594 3.23958,-10.2682 3.0625,-10.0859 C2.88542,-9.90365 2.79688,-9.5625 2.79688,-9.0625 L2.79688,-8.29688 L4.40625,-8.29688 L4.40625,-7.20313 L2.79688,-7.20313 L2.79688,0 L1.39063,0 M5.0625,-9.84375 L5.0625,-11.4531 L6.46875,-11.4531 L6.46875,-9.84375 L5.0625,-9.84375 M5.0625,0 L5.0625,-8.29688 L6.46875,-8.29688 L6.46875,0 L5.0625,0 M9.0625,0 L9.0625,-8.29688 L10.3281,-8.29688 L10.3281,-7.125 C10.9323,-8.03125 11.8125,-8.48438 12.9688,-8.48438 C13.4688,-8.48438 13.9271,-8.39583 14.3438,-8.21875 C14.7604,-8.04167 15.0729,-7.80729 15.2813,-7.51563 C15.4896,-7.22396 15.6354,-6.875 15.7188,-6.46875 C15.7708,-6.20833 15.7969,-5.75521 15.7969,-5.10938 L15.7969,0 L14.3906,0 L14.3906,-5.04688 C14.3906,-5.61979 14.3359,-6.04948 14.2266,-6.33594 C14.1172,-6.6224 13.9245,-6.84896 13.6484,-7.01563 C13.3724,-7.18229 13.0469,-7.26563 12.6719,-7.26563 C12.0677,-7.26563 11.5495,-7.07552 11.1172,-6.69531 C10.6849,-6.3151 10.4688,-5.59375 10.4688,-4.53125 L10.4688,0 L9.0625,0 M23.4688,-1.03125 C22.9479,-0.583333 22.4479,-0.268229 21.9688,-0.0859375 C21.4896,0.0963542 20.974,0.1875 20.4219,0.1875 C19.5052,0.1875 18.8021,-0.0364583 18.3125,-0.484375 C17.8229,-0.932292 17.5781,-1.5 17.5781,-2.1875 C17.5781,-2.59375 17.6719,-2.96615 17.8594,-3.30469 C18.0469,-3.64323 18.2891,-3.91406 18.5859,-4.11719 C18.8828,-4.32031 19.2188,-4.47396 19.5938,-4.57813 C19.875,-4.65104 20.2917,-4.71875 20.8438,-4.78125 C21.9792,-4.91667 22.8177,-5.07813 23.3594,-5.26563 C23.3594,-5.46354 23.3594,-5.58854 23.3594,-5.64063 C23.3594,-6.21354 23.2292,-6.61458 22.9688,-6.84375 C22.6042,-7.16667 22.0677,-7.32813 21.3594,-7.32813 C20.7031,-7.32813 20.2161,-7.21094 19.8984,-6.97656 C19.5807,-6.74219 19.349,-6.33333 19.2031,-5.75 L17.8281,-5.9375 C17.9531,-6.52083 18.1589,-6.99479 18.4453,-7.35938 C18.7318,-7.72396 19.1458,-8.0026 19.6875,-8.19531 C20.2292,-8.38802 20.8542,-8.48438 21.5625,-8.48438 C22.2708,-8.48438 22.8464,-8.40104 23.2891,-8.23438 C23.7318,-8.06771 24.0573,-7.85938 24.2656,-7.60938 C24.474,-7.35938 24.6198,-7.04167 24.7031,-6.65625 C24.7552,-6.41667 24.7813,-5.98438 24.7813,-5.35938 L24.7813,-3.48438 C24.7813,-2.17188 24.8099,-1.34375 24.8672,-1 C24.9245,-0.65625 25.0417,-0.322917 25.2188,0 L23.75,0 C23.6042,-0.291667 23.5104,-0.635417 23.4688,-1.03125 M23.3594,-4.17188 C22.849,-3.96354 22.0833,-3.78646 21.0625,-3.64063 C20.4792,-3.55729 20.0677,-3.46354 19.8281,-3.35938 C19.5885,-3.25521 19.4036,-3.10156 19.2734,-2.89844 C19.1432,-2.69531 19.0781,-2.47396 19.0781,-2.23438 C19.0781,-1.85938 19.2214,-1.54688 19.5078,-1.29688 C19.7943,-1.04688 20.2083,-0.921875 20.75,-0.921875 C21.2917,-0.921875 21.7734,-1.03906 22.1953,-1.27344 C22.6172,-1.50781 22.9271,-1.83333 23.125,-2.25 C23.2813,-2.5625 23.3594,-3.03125 23.3594,-3.65625 L23.3594,-4.17188 M27.0313,0 L27.0313,-11.4531 L28.4375,-11.4531 L28.4375,0 L27.0313,0"/>
</g>

<g fill="#212121" fill-opacity="1" stroke="#212121" stroke-opacity="1" stroke-width="0.666667" stroke-linecap="square" stroke-linejoin="round" transform="matrix(0.731552,0,0,0.726997,-43.9538,-11.6647)"
font-family="MS Shell Dlg 2" font-size="8.25" font-weight="400" font-style="normal" 
>
<polyline fill="none" vector-effect="none" points="525,497 525,54.9998 " />
<polyline fill="none" vector-effect="none" points="833,497 833,54.9998 " />
<polyline fill="none" vector-effect="none" points="525,497 529.42,497 " />
<polyline fill="none" vector-effect="none" points="828.58,497 833,497 " />
<polyline fill="none" vector-effect="none" points="525,414.945 529.42,414.945 " />
<polyline fill="none" vector-effect="none" points="828.58,414.945 833,414.945 " />
<polyline fill="none" vector-effect="none" points="525,332.89 529.42,332.89 " />
<polyline fill="none" vector-effect="none" points="828.58,332.89 833,332.89 " />
<polyline fill="none" vector-effect="none" points="525,250.835 529.42,250.835 " />
<polyline fill="none" vector-effect="none" points="828.58,250.835 833,250.835 " />
<polyline fill="none" vector-effect="none" points="525,168.78 529.42,168.78 " />
<polyline fill="none" vector-effect="none" points="828.58,168.78 833,168.78 " />
<polyline fill="none" vector-effect="none" points="525,86.7255 529.42,86.7255 " />
<polyline fill="none" vector-effect="none" points="828.58,86.7255 833,86.7255 " />
</g>

<g fill="#212121" fill-opacity="1" stroke="none" transform="matrix(0.731552,0,0,0.726997,309.483,353.651)"
font-family="MS Shell Dlg 2" font-size="8.25" font-weight="400" font-style="normal" 
>
<path vector-effect="none" fill-rule="evenodd" d="M0.765625,-9.95313 L0.765625,-11.3125 L8.17188,-11.3125 L8.17188,-10.2188 C7.44271,-9.4375 6.72135,-8.40365 6.00781,-7.11719 C5.29427,-5.83073 4.73958,-4.51042 4.34375,-3.15625 C4.0625,-2.19792 3.88542,-1.14583 3.8125,0 L2.35938,0 C2.38021,-0.90625 2.5599,-1.9974 2.89844,-3.27344 C3.23698,-4.54948 3.72135,-5.77865 4.35156,-6.96094 C4.98177,-8.14323 5.65625,-9.14063 6.375,-9.95313 L0.765625,-9.95313 M14.1719,0 L14.1719,-2.75 L9.20313,-2.75 L9.20313,-4.03125 L14.4375,-11.4531 L15.5781,-11.4531 L15.5781,-4.03125 L17.125,-4.03125 L17.125,-2.75 L15.5781,-2.75 L15.5781,0 L14.1719,0 M14.1719,-4.03125 L14.1719,-9.20313 L10.5938,-4.03125 L14.1719,-4.03125 M18.6719,-3 L20.1406,-3.125 C20.2552,-2.40625 20.5104,-1.86719 20.9063,-1.50781 C21.3021,-1.14844 21.7813,-0.96875 22.3438,-0.96875 C23.0208,-0.96875 23.5938,-1.22396 24.0625,-1.73438 C24.5313,-2.24479 24.7656,-2.92188 24.7656,-3.76563 C24.7656,-4.56771 24.5417,-5.20052 24.0938,-5.66406 C23.6458,-6.1276 23.0573,-6.35938 22.3281,-6.35938 C21.8698,-6.35938 21.4583,-6.25521 21.0938,-6.04688 C20.7292,-5.83854 20.4427,-5.57292 20.2344,-5.25 L18.9219,-5.42188 L20.0313,-11.2969 L25.7188,-11.2969 L25.7188,-9.95313 L21.1563,-9.95313 L20.5313,-6.875 C21.2188,-7.35417 21.9427,-7.59375 22.7031,-7.59375 C23.7031,-7.59375 24.5469,-7.2474 25.2344,-6.55469 C25.9219,-5.86198 26.2656,-4.97396 26.2656,-3.89063 C26.2656,-2.84896 25.9635,-1.95313 25.3594,-1.20313 C24.6198,-0.265625 23.6146,0.203125 22.3438,0.203125 C21.3021,0.203125 20.4531,-0.0911458 19.7969,-0.679688 C19.1406,-1.26823 18.7656,-2.04167 18.6719,-3 M27.6719,-5.65625 C27.6719,-7.01042 27.8099,-8.09896 28.0859,-8.92188 C28.362,-9.74479 28.776,-10.3802 29.3281,-10.8281 C29.8802,-11.276 30.5729,-11.5 31.4063,-11.5 C32.0208,-11.5 32.5599,-11.3776 33.0234,-11.1328 C33.487,-10.888 33.8698,-10.5313 34.1719,-10.0625 C34.474,-9.59375 34.7109,-9.02604 34.8828,-8.35938 C35.0547,-7.69271 35.1406,-6.79167 35.1406,-5.65625 C35.1406,-4.3125 35.0026,-3.22656 34.7266,-2.39844 C34.4505,-1.57031 34.0365,-0.929688 33.4844,-0.476563 C32.9323,-0.0234375 32.2396,0.203125 31.4063,0.203125 C30.3021,0.203125 29.4323,-0.197917 28.7969,-1 C28.0469,-1.94792 27.6719,-3.5 27.6719,-5.65625 M29.1094,-5.65625 C29.1094,-3.77083 29.3307,-2.51823 29.7734,-1.89844 C30.2161,-1.27865 30.7604,-0.96875 31.4063,-0.96875 C32.0521,-0.96875 32.5938,-1.28125 33.0313,-1.90625 C33.4688,-2.53125 33.6875,-3.78125 33.6875,-5.65625 C33.6875,-7.54167 33.4688,-8.79427 33.0313,-9.41406 C32.5938,-10.0339 32.0469,-10.3438 31.3906,-10.3438 C30.7448,-10.3438 30.2292,-10.0677 29.8438,-9.51563 C29.3542,-8.81771 29.1094,-7.53125 29.1094,-5.65625 "/>
</g>

<g fill="#212121" fill-opacity="1" stroke="none" transform="matrix(0.731552,0,0,0.726997,309.483,293.998)"
font-family="MS Shell Dlg 2" font-size="8.25" font-weight="400" font-style="normal" 
>
<path vector-effect="none" fill-rule="evenodd" d="M0.765625,-9.95313 L0.765625,-11.3125 L8.17188,-11.3125 L8.17188,-10.2188 C7.44271,-9.4375 6.72135,-8.40365 6.00781,-7.11719 C5.29427,-5.83073 4.73958,-4.51042 4.34375,-3.15625 C4.0625,-2.19792 3.88542,-1.14583 3.8125,0 L2.35938,0 C2.38021,-0.90625 2.5599,-1.9974 2.89844,-3.27344 C3.23698,-4.54948 3.72135,-5.77865 4.35156,-6.96094 C4.98177,-8.14323 5.65625,-9.14063 6.375,-9.95313 L0.765625,-9.95313 M9.67188,-3 L11.1406,-3.125 C11.2552,-2.40625 11.5104,-1.86719 11.9063,-1.50781 C12.3021,-1.14844 12.7813,-0.96875 13.3438,-0.96875 C14.0208,-0.96875 14.5938,-1.22396 15.0625,-1.73438 C15.5313,-2.24479 15.7656,-2.92188 15.7656,-3.76563 C15.7656,-4.56771 15.5417,-5.20052 15.0938,-5.66406 C14.6458,-6.1276 14.0573,-6.35938 13.3281,-6.35938 C12.8698,-6.35938 12.4583,-6.25521 12.0938,-6.04688 C11.7292,-5.83854 11.4427,-5.57292 11.2344,-5.25 L9.92188,-5.42188 L11.0313,-11.2969 L16.7188,-11.2969 L16.7188,-9.95313 L12.1563,-9.95313 L11.5313,-6.875 C12.2188,-7.35417 12.9427,-7.59375 13.7031,-7.59375 C14.7031,-7.59375 15.5469,-7.2474 16.2344,-6.55469 C16.9219,-5.86198 17.2656,-4.97396 17.2656,-3.89063 C17.2656,-2.84896 16.9635,-1.95313 16.3594,-1.20313 C15.6198,-0.265625 14.6146,0.203125 13.3438,0.203125 C12.3021,0.203125 11.4531,-0.0911458 10.7969,-0.679688 C10.1406,-1.26823 9.76563,-2.04167 9.67188,-3 M18.6719,-5.65625 C18.6719,-7.01042 18.8099,-8.09896 19.0859,-8.92188 C19.362,-9.74479 19.776,-10.3802 20.3281,-10.8281 C20.8802,-11.276 21.5729,-11.5 22.4063,-11.5 C23.0208,-11.5 23.5599,-11.3776 24.0234,-11.1328 C24.487,-10.888 24.8698,-10.5313 25.1719,-10.0625 C25.474,-9.59375 25.7109,-9.02604 25.8828,-8.35938 C26.0547,-7.69271 26.1406,-6.79167 26.1406,-5.65625 C26.1406,-4.3125 26.0026,-3.22656 25.7266,-2.39844 C25.4505,-1.57031 25.0365,-0.929688 24.4844,-0.476563 C23.9323,-0.0234375 23.2396,0.203125 22.4063,0.203125 C21.3021,0.203125 20.4323,-0.197917 19.7969,-1 C19.0469,-1.94792 18.6719,-3.5 18.6719,-5.65625 M20.1094,-5.65625 C20.1094,-3.77083 20.3307,-2.51823 20.7734,-1.89844 C21.2161,-1.27865 21.7604,-0.96875 22.4063,-0.96875 C23.0521,-0.96875 23.5938,-1.28125 24.0313,-1.90625 C24.4688,-2.53125 24.6875,-3.78125 24.6875,-5.65625 C24.6875,-7.54167 24.4688,-8.79427 24.0313,-9.41406 C23.5938,-10.0339 23.0469,-10.3438 22.3906,-10.3438 C21.7448,-10.3438 21.2292,-10.0677 20.8438,-9.51563 C20.3542,-8.81771 20.1094,-7.53125 20.1094,-5.65625 M27.6719,-5.65625 C27.6719,-7.01042 27.8099,-8.09896 28.0859,-8.92188 C28.362,-9.74479 28.776,-10.3802 29.3281,-10.8281 C29.8802,-11.276 30.5729,-11.5 31.4063,-11.5 C32.0208,-11.5 32.5599,-11.3776 33.0234,-11.1328 C33.487,-10.888 33.8698,-10.5313 34.1719,-10.0625 C34.474,-9.59375 34.7109,-9.02604 34.8828,-8.35938 C35.0547,-7.69271 35.1406,-6.79167 35.1406,-5.65625 C35.1406,-4.3125 35.0026,-3.22656 34.7266,-2.39844 C34.4505,-1.57031 34.0365,-0.929688 33.4844,-0.476563 C32.9323,-0.0234375 32.2396,0.203125 31.4063,0.203125 C30.3021,0.203125 29.4323,-0.197917 28.7969,-1 C28.0469,-1.94792 27.6719,-3.5 27.6719,-5.65625 M29.1094,-5.65625 C29.1094,-3.77083 29.3307,-2.51823 29.7734,-1.89844 C30.2161,-1.27865 30.7604,-0.96875 31.4063,-0.96875 C32.0521,-0.96875 32.5938,-1.28125 33.0313,-1.90625 C33.4688,-2.53125 33.6875,-3.78125 33.6875,-5.65625 C33.6875,-7.54167 33.4688,-8.79427 33.0313,-9.41406 C32.5938,-10.0339 32.0469,-10.3438 31.3906,-10.3438 C30.7448,-10.3438 30.2292,-10.0677 29.8438,-9.51563 C29.3542,-8.81771 29.1094,-7.53125 29.1094,-5.65625 "/>
</g>

<g fill="#212121" fill-opacity="1" stroke="none" transform="matrix(0.731552,0,0,0.726997,309.483,234.344)"
font-family="MS Shell Dlg 2" font-size="8.25" font-weight="400" font-style="normal" 
>
<path vector-effect="none" fill-rule="evenodd" d="M0.765625,-9.95313 L0.765625,-11.3125 L8.17188,-11.3125 L8.17188,-10.2188 C7.44271,-9.4375 6.72135,-8.40365 6.00781,-7.11719 C5.29427,-5.83073 4.73958,-4.51042 4.34375,-3.15625 C4.0625,-2.19792 3.88542,-1.14583 3.8125,0 L2.35938,0 C2.38021,-0.90625 2.5599,-1.9974 2.89844,-3.27344 C3.23698,-4.54948 3.72135,-5.77865 4.35156,-6.96094 C4.98177,-8.14323 5.65625,-9.14063 6.375,-9.95313 L0.765625,-9.95313 M9.67188,-3 L11.1406,-3.125 C11.2552,-2.40625 11.5104,-1.86719 11.9063,-1.50781 C12.3021,-1.14844 12.7813,-0.96875 13.3438,-0.96875 C14.0208,-0.96875 14.5938,-1.22396 15.0625,-1.73438 C15.5313,-2.24479 15.7656,-2.92188 15.7656,-3.76563 C15.7656,-4.56771 15.5417,-5.20052 15.0938,-5.66406 C14.6458,-6.1276 14.0573,-6.35938 13.3281,-6.35938 C12.8698,-6.35938 12.4583,-6.25521 12.0938,-6.04688 C11.7292,-5.83854 11.4427,-5.57292 11.2344,-5.25 L9.92188,-5.42188 L11.0313,-11.2969 L16.7188,-11.2969 L16.7188,-9.95313 L12.1563,-9.95313 L11.5313,-6.875 C12.2188,-7.35417 12.9427,-7.59375 13.7031,-7.59375 C14.7031,-7.59375 15.5469,-7.2474 16.2344,-6.55469 C16.9219,-5.86198 17.2656,-4.97396 17.2656,-3.89063 C17.2656,-2.84896 16.9635,-1.95313 16.3594,-1.20313 C15.6198,-0.265625 14.6146,0.203125 13.3438,0.203125 C12.3021,0.203125 11.4531,-0.0911458 10.7969,-0.679688 C10.1406,-1.26823 9.76563,-2.04167 9.67188,-3 M18.6719,-3 L20.1406,-3.125 C20.2552,-2.40625 20.5104,-1.86719 20.9063,-1.50781 C21.3021,-1.14844 21.7813,-0.96875 22.3438,-0.96875 C23.0208,-0.96875 23.5938,-1.22396 24.0625,-1.73438 C24.5313,-2.24479 24.7656,-2.92188 24.7656,-3.76563 C24.7656,-4.56771 24.5417,-5.20052 24.0938,-5.66406 C23.6458,-6.1276 23.0573,-6.35938 22.3281,-6.35938 C21.8698,-6.35938 21.4583,-6.25521 21.0938,-6.04688 C20.7292,-5.83854 20.4427,-5.57292 20.2344,-5.25 L18.9219,-5.42188 L20.0313,-11.2969 L25.7188,-11.2969 L25.7188,-9.95313 L21.1563,-9.95313 L20.5313,-6.875 C21.2188,-7.35417 21.9427,-7.59375 22.7031,-7.59375 C23.7031,-7.59375 24.5469,-7.2474 25.2344,-6.55469 C25.9219,-5.86198 26.2656,-4.97396 26.2656,-3.89063 C26.2656,-2.84896 25.9635,-1.95313 25.3594,-1.20313 C24.6198,-0.265625 23.6146,0.203125 22.3438,0.203125 C21.3021,0.203125 20.4531,-0.0911458 19.7969,-0.679688 C19.1406,-1.26823 18.7656,-2.04167 18.6719,-3 M27.6719,-5.65625 C27.6719,-7.01042 27.8099,-8.09896 28.0859,-8.92188 C28.362,-9.74479 28.776,-10.3802 29.3281,-10.8281 C29.8802,-11.276 30.5729,-11.5 31.4063,-11.5 C32.0208,-11.5 32.5599,-11.3776 33.0234,-11.1328 C33.487,-10.888 33.8698,-10.5313 34.1719,-10.0625 C34.474,-9.59375 34.7109,-9.02604 34.8828,-8.35938 C35.0547,-7.69271 35.1406,-6.79167 35.1406,-5.65625 C35.1406,-4.3125 35.0026,-3.22656 34.7266,-2.39844 C34.4505,-1.57031 34.0365,-0.929688 33.4844,-0.476563 C32.9323,-0.0234375 32.2396,0.203125 31.4063,0.203125 C30.3021,0.203125 29.4323,-0.197917 28.7969,-1 C28.0469,-1.94792 27.6719,-3.5 27.6719,-5.65625 M29.1094,-5.65625 C29.1094,-3.77083 29.3307,-2.51823 29.7734,-1.89844 C30.2161,-1.27865 30.7604,-0.96875 31.4063,-0.96875 C32.0521,-0.96875 32.5938,-1.28125 33.0313,-1.90625 C33.4688,-2.53125 33.6875,-3.78125 33.6875,-5.65625 C33.6875,-7.54167 33.4688,-8.79427 33.0313,-9.41406 C32.5938,-10.0339 32.0469,-10.3438 31.3906,-10.3438 C30.7448,-10.3438 30.2292,-10.0677 29.8438,-9.51563 C29.3542,-8.81771 29.1094,-7.53125 29.1094,-5.65625 "/>
</g>

<g fill="#212121" fill-opacity="1" stroke="none" transform="matrix(0.731552,0,0,0.726997,309.483,174.69)"
font-family="MS Shell Dlg 2" font-size="8.25" font-weight="400" font-style="normal" 
>
<path vector-effect="none" fill-rule="evenodd" d="M0.765625,-9.95313 L0.765625,-11.3125 L8.17188,-11.3125 L8.17188,-10.2188 C7.44271,-9.4375 6.72135,-8.40365 6.00781,-7.11719 C5.29427,-5.83073 4.73958,-4.51042 4.34375,-3.15625 C4.0625,-2.19792 3.88542,-1.14583 3.8125,0 L2.35938,0 C2.38021,-0.90625 2.5599,-1.9974 2.89844,-3.27344 C3.23698,-4.54948 3.72135,-5.77865 4.35156,-6.96094 C4.98177,-8.14323 5.65625,-9.14063 6.375,-9.95313 L0.765625,-9.95313 M16.9688,-8.65625 L15.5625,-8.54688 C15.4375,-9.09896 15.2604,-9.5 15.0313,-9.75 C14.6563,-10.1458 14.1875,-10.3438 13.625,-10.3438 C13.1771,-10.3438 12.7865,-10.2188 12.4531,-9.96875 C12.0052,-9.64583 11.6536,-9.17448 11.3984,-8.55469 C11.1432,-7.9349 11.0104,-7.05208 11,-5.90625 C11.3438,-6.42708 11.7604,-6.8125 12.25,-7.0625 C12.7396,-7.3125 13.25,-7.4375 13.7813,-7.4375 C14.7188,-7.4375 15.5182,-7.09115 16.1797,-6.39844 C16.8411,-5.70573 17.1719,-4.8125 17.1719,-3.71875 C17.1719,-3 17.0156,-2.33333 16.7031,-1.71875 C16.3906,-1.10417 15.9635,-0.630208 15.4219,-0.296875 C14.8802,0.0364583 14.2656,0.203125 13.5781,0.203125 C12.4115,0.203125 11.4583,-0.229167 10.7188,-1.09375 C9.97917,-1.95833 9.60938,-3.38021 9.60938,-5.35938 C9.60938,-7.57813 10.0156,-9.1875 10.8281,-10.1875 C11.5469,-11.0625 12.5104,-11.5 13.7188,-11.5 C14.6146,-11.5 15.3516,-11.2474 15.9297,-10.7422 C16.5078,-10.237 16.8542,-9.54167 16.9688,-8.65625 M11.2188,-3.71875 C11.2188,-3.22917 11.3229,-2.76302 11.5313,-2.32031 C11.7396,-1.8776 12.0286,-1.54167 12.3984,-1.3125 C12.7682,-1.08333 13.1563,-0.96875 13.5625,-0.96875 C14.1563,-0.96875 14.6667,-1.20833 15.0938,-1.6875 C15.5208,-2.16667 15.7344,-2.81771 15.7344,-3.64063 C15.7344,-4.43229 15.5234,-5.05469 15.1016,-5.50781 C14.6797,-5.96094 14.1458,-6.1875 13.5,-6.1875 C12.8646,-6.1875 12.3255,-5.96094 11.8828,-5.50781 C11.4401,-5.05469 11.2188,-4.45833 11.2188,-3.71875 M18.6719,-5.65625 C18.6719,-7.01042 18.8099,-8.09896 19.0859,-8.92188 C19.362,-9.74479 19.776,-10.3802 20.3281,-10.8281 C20.8802,-11.276 21.5729,-11.5 22.4063,-11.5 C23.0208,-11.5 23.5599,-11.3776 24.0234,-11.1328 C24.487,-10.888 24.8698,-10.5313 25.1719,-10.0625 C25.474,-9.59375 25.7109,-9.02604 25.8828,-8.35938 C26.0547,-7.69271 26.1406,-6.79167 26.1406,-5.65625 C26.1406,-4.3125 26.0026,-3.22656 25.7266,-2.39844 C25.4505,-1.57031 25.0365,-0.929688 24.4844,-0.476563 C23.9323,-0.0234375 23.2396,0.203125 22.4063,0.203125 C21.3021,0.203125 20.4323,-0.197917 19.7969,-1 C19.0469,-1.94792 18.6719,-3.5 18.6719,-5.65625 M20.1094,-5.65625 C20.1094,-3.77083 20.3307,-2.51823 20.7734,-1.89844 C21.2161,-1.27865 21.7604,-0.96875 22.4063,-0.96875 C23.0521,-0.96875 23.5938,-1.28125 24.0313,-1.90625 C24.4688,-2.53125 24.6875,-3.78125 24.6875,-5.65625 C24.6875,-7.54167 24.4688,-8.79427 24.0313,-9.41406 C23.5938,-10.0339 23.0469,-10.3438 22.3906,-10.3438 C21.7448,-10.3438 21.2292,-10.0677 20.8438,-9.51563 C20.3542,-8.81771 20.1094,-7.53125 20.1094,-5.65625 M27.6719,-5.65625 C27.6719,-7.01042 27.8099,-8.09896 28.0859,-8.92188 C28.362,-9.74479 28.776,-10.3802 29.3281,-10.8281 C29.8802,-11.276 30.5729,-11.5 31.4063,-11.5 C32.0208,-11.5 32.5599,-11.3776 33.0234,-11.1328 C33.487,-10.888 33.8698,-10.5313 34.1719,-10.0625 C34.474,-9.59375 34.7109,-9.02604 34.8828,-8.35938 C35.0547,-7.69271 35.1406,-6.79167 35.1406,-5.65625 C35.1406,-4.3125 35.0026,-3.22656 34.7266,-2.39844 C34.4505,-1.57031 34.0365,-0.929688 33.4844,-0.476563 C32.9323,-0.0234375 32.2396,0.203125 31.4063,0.203125 C30.3021,0.203125 29.4323,-0.197917 28.7969,-1 C28.0469,-1.94792 27.6719,-3.5 27.6719,-5.65625 M29.1094,-5.65625 C29.1094,-3.77083 29.3307,-2.51823 29.7734,-1.89844 C30.2161,-1.27865 30.7604,-0.96875 31.4063,-0.96875 C32.0521,-0.96875 32.5938,-1.28125 33.0313,-1.90625 C33.4688,-2.53125 33.6875,-3.78125 33.6875,-5.65625 C33.6875,-7.54167 33.4688,-8.79427 33.0313,-9.41406 C32.5938,-10.0339 32.0469,-10.3438 31.3906,-10.3438 C30.7448,-10.3438 30.2292,-10.0677 29.8438,-9.51563 C29.3542,-8.81771 29.1094,-7.53125 29.1094,-5.65625 "/>
</g>

<g fill="#212121" fill-opacity="1" stroke="none" transform="matrix(0.731552,0,0,0.726997,309.483,115.037)"
font-family="MS Shell Dlg 2" font-size="8.25" font-weight="400" font-style="normal" 
>
<path vector-effect="none" fill-rule="evenodd" d="M0.765625,-9.95313 L0.765625,-11.3125 L8.17188,-11.3125 L8.17188,-10.2188 C7.44271,-9.4375 6.72135,-8.40365 6.00781,-7.11719 C5.29427,-5.83073 4.73958,-4.51042 4.34375,-3.15625 C4.0625,-2.19792 3.88542,-1.14583 3.8125,0 L2.35938,0 C2.38021,-0.90625 2.5599,-1.9974 2.89844,-3.27344 C3.23698,-4.54948 3.72135,-5.77865 4.35156,-6.96094 C4.98177,-8.14323 5.65625,-9.14063 6.375,-9.95313 L0.765625,-9.95313 M16.9688,-8.65625 L15.5625,-8.54688 C15.4375,-9.09896 15.2604,-9.5 15.0313,-9.75 C14.6563,-10.1458 14.1875,-10.3438 13.625,-10.3438 C13.1771,-10.3438 12.7865,-10.2188 12.4531,-9.96875 C12.0052,-9.64583 11.6536,-9.17448 11.3984,-8.55469 C11.1432,-7.9349 11.0104,-7.05208 11,-5.90625 C11.3438,-6.42708 11.7604,-6.8125 12.25,-7.0625 C12.7396,-7.3125 13.25,-7.4375 13.7813,-7.4375 C14.7188,-7.4375 15.5182,-7.09115 16.1797,-6.39844 C16.8411,-5.70573 17.1719,-4.8125 17.1719,-3.71875 C17.1719,-3 17.0156,-2.33333 16.7031,-1.71875 C16.3906,-1.10417 15.9635,-0.630208 15.4219,-0.296875 C14.8802,0.0364583 14.2656,0.203125 13.5781,0.203125 C12.4115,0.203125 11.4583,-0.229167 10.7188,-1.09375 C9.97917,-1.95833 9.60938,-3.38021 9.60938,-5.35938 C9.60938,-7.57813 10.0156,-9.1875 10.8281,-10.1875 C11.5469,-11.0625 12.5104,-11.5 13.7188,-11.5 C14.6146,-11.5 15.3516,-11.2474 15.9297,-10.7422 C16.5078,-10.237 16.8542,-9.54167 16.9688,-8.65625 M11.2188,-3.71875 C11.2188,-3.22917 11.3229,-2.76302 11.5313,-2.32031 C11.7396,-1.8776 12.0286,-1.54167 12.3984,-1.3125 C12.7682,-1.08333 13.1563,-0.96875 13.5625,-0.96875 C14.1563,-0.96875 14.6667,-1.20833 15.0938,-1.6875 C15.5208,-2.16667 15.7344,-2.81771 15.7344,-3.64063 C15.7344,-4.43229 15.5234,-5.05469 15.1016,-5.50781 C14.6797,-5.96094 14.1458,-6.1875 13.5,-6.1875 C12.8646,-6.1875 12.3255,-5.96094 11.8828,-5.50781 C11.4401,-5.05469 11.2188,-4.45833 11.2188,-3.71875 M18.6719,-3 L20.1406,-3.125 C20.2552,-2.40625 20.5104,-1.86719 20.9063,-1.50781 C21.3021,-1.14844 21.7813,-0.96875 22.3438,-0.96875 C23.0208,-0.96875 23.5938,-1.22396 24.0625,-1.73438 C24.5313,-2.24479 24.7656,-2.92188 24.7656,-3.76563 C24.7656,-4.56771 24.5417,-5.20052 24.0938,-5.66406 C23.6458,-6.1276 23.0573,-6.35938 22.3281,-6.35938 C21.8698,-6.35938 21.4583,-6.25521 21.0938,-6.04688 C20.7292,-5.83854 20.4427,-5.57292 20.2344,-5.25 L18.9219,-5.42188 L20.0313,-11.2969 L25.7188,-11.2969 L25.7188,-9.95313 L21.1563,-9.95313 L20.5313,-6.875 C21.2188,-7.35417 21.9427,-7.59375 22.7031,-7.59375 C23.7031,-7.59375 24.5469,-7.2474 25.2344,-6.55469 C25.9219,-5.86198 26.2656,-4.97396 26.2656,-3.89063 C26.2656,-2.84896 25.9635,-1.95313 25.3594,-1.20313 C24.6198,-0.265625 23.6146,0.203125 22.3438,0.203125 C21.3021,0.203125 20.4531,-0.0911458 19.7969,-0.679688 C19.1406,-1.26823 18.7656,-2.04167 18.6719,-3 M27.6719,-5.65625 C27.6719,-7.01042 27.8099,-8.09896 28.0859,-8.92188 C28.362,-9.74479 28.776,-10.3802 29.3281,-10.8281 C29.8802,-11.276 30.5729,-11.5 31.4063,-11.5 C32.0208,-11.5 32.5599,-11.3776 33.0234,-11.1328 C33.487,-10.888 33.8698,-10.5313 34.1719,-10.0625 C34.474,-9.59375 34.7109,-9.02604 34.8828,-8.35938 C35.0547,-7.69271 35.1406,-6.79167 35.1406,-5.65625 C35.1406,-4.3125 35.0026,-3.22656 34.7266,-2.39844 C34.4505,-1.57031 34.0365,-0.929688 33.4844,-0.476563 C32.9323,-0.0234375 32.2396,0.203125 31.4063,0.203125 C30.3021,0.203125 29.4323,-0.197917 28.7969,-1 C28.0469,-1.94792 27.6719,-3.5 27.6719,-5.65625 M29.1094,-5.65625 C29.1094,-3.77083 29.3307,-2.51823 29.7734,-1.89844 C30.2161,-1.27865 30.7604,-0.96875 31.4063,-0.96875 C32.0521,-0.96875 32.5938,-1.28125 33.0313,-1.90625 C33.4688,-2.53125 33.6875,-3.78125 33.6875,-5.65625 C33.6875,-7.54167 33.4688,-8.79427 33.0313,-9.41406 C32.5938,-10.0339 32.0469,-10.3438 31.3906,-10.3438 C30.7448,-10.3438 30.2292,-10.0677 29.8438,-9.51563 C29.3542,-8.81771 29.1094,-7.53125 29.1094,-5.65625 "/>
</g>

<g fill="#212121" fill-opacity="1" stroke="none" transform="matrix(0.731552,0,0,0.726997,309.483,55.383)"
font-family="MS Shell Dlg 2" font-size="8.25" font-weight="400" font-style="normal" 
>
<path vector-effect="none" fill-rule="evenodd" d="M0.765625,-9.95313 L0.765625,-11.3125 L8.17188,-11.3125 L8.17188,-10.2188 C7.44271,-9.4375 6.72135,-8.40365 6.00781,-7.11719 C5.29427,-5.83073 4.73958,-4.51042 4.34375,-3.15625 C4.0625,-2.19792 3.88542,-1.14583 3.8125,0 L2.35938,0 C2.38021,-0.90625 2.5599,-1.9974 2.89844,-3.27344 C3.23698,-4.54948 3.72135,-5.77865 4.35156,-6.96094 C4.98177,-8.14323 5.65625,-9.14063 6.375,-9.95313 L0.765625,-9.95313 M9.76563,-9.95313 L9.76563,-11.3125 L17.1719,-11.3125 L17.1719,-10.2188 C16.4427,-9.4375 15.7214,-8.40365 15.0078,-7.11719 C14.2943,-5.83073 13.7396,-4.51042 13.3438,-3.15625 C13.0625,-2.19792 12.8854,-1.14583 12.8125,0 L11.3594,0 C11.3802,-0.90625 11.5599,-1.9974 11.8984,-3.27344 C12.237,-4.54948 12.7214,-5.77865 13.3516,-6.96094 C13.9818,-8.14323 14.6563,-9.14063 15.375,-9.95313 L9.76563,-9.95313 M18.6719,-5.65625 C18.6719,-7.01042 18.8099,-8.09896 19.0859,-8.92188 C19.362,-9.74479 19.776,-10.3802 20.3281,-10.8281 C20.8802,-11.276 21.5729,-11.5 22.4063,-11.5 C23.0208,-11.5 23.5599,-11.3776 24.0234,-11.1328 C24.487,-10.888 24.8698,-10.5313 25.1719,-10.0625 C25.474,-9.59375 25.7109,-9.02604 25.8828,-8.35938 C26.0547,-7.69271 26.1406,-6.79167 26.1406,-5.65625 C26.1406,-4.3125 26.0026,-3.22656 25.7266,-2.39844 C25.4505,-1.57031 25.0365,-0.929688 24.4844,-0.476563 C23.9323,-0.0234375 23.2396,0.203125 22.4063,0.203125 C21.3021,0.203125 20.4323,-0.197917 19.7969,-1 C19.0469,-1.94792 18.6719,-3.5 18.6719,-5.65625 M20.1094,-5.65625 C20.1094,-3.77083 20.3307,-2.51823 20.7734,-1.89844 C21.2161,-1.27865 21.7604,-0.96875 22.4063,-0.96875 C23.0521,-0.96875 23.5938,-1.28125 24.0313,-1.90625 C24.4688,-2.53125 24.6875,-3.78125 24.6875,-5.65625 C24.6875,-7.54167 24.4688,-8.79427 24.0313,-9.41406 C23.5938,-10.0339 23.0469,-10.3438 22.3906,-10.3438 C21.7448,-10.3438 21.2292,-10.0677 20.8438,-9.51563 C20.3542,-8.81771 20.1094,-7.53125 20.1094,-5.65625 M27.6719,-5.65625 C27.6719,-7.01042 27.8099,-8.09896 28.0859,-8.92188 C28.362,-9.74479 28.776,-10.3802 29.3281,-10.8281 C29.8802,-11.276 30.5729,-11.5 31.4063,-11.5 C32.0208,-11.5 32.5599,-11.3776 33.0234,-11.1328 C33.487,-10.888 33.8698,-10.5313 34.1719,-10.0625 C34.474,-9.59375 34.7109,-9.02604 34.8828,-8.35938 C35.0547,-7.69271 35.1406,-6.79167 35.1406,-5.65625 C35.1406,-4.3125 35.0026,-3.22656 34.7266,-2.39844 C34.4505,-1.57031 34.0365,-0.929688 33.4844,-0.476563 C32.9323,-0.0234375 32.2396,0.203125 31.4063,0.203125 C30.3021,0.203125 29.4323,-0.197917 28.7969,-1 C28.0469,-1.94792 27.6719,-3.5 27.6719,-5.65625 M29.1094,-5.65625 C29.1094,-3.77083 29.3307,-2.51823 29.7734,-1.89844 C30.2161,-1.27865 30.7604,-0.96875 31.4063,-0.96875 C32.0521,-0.96875 32.5938,-1.28125 33.0313,-1.90625 C33.4688,-2.53125 33.6875,-3.78125 33.6875,-5.65625 C33.6875,-7.54167 33.4688,-8.79427 33.0313,-9.41406 C32.5938,-10.0339 32.0469,-10.3438 31.3906,-10.3438 C30.7448,-10.3438 30.2292,-10.0677 29.8438,-9.51563 C29.3542,-8.81771 29.1094,-7.53125 29.1094,-5.65625 "/>
</g>

<g fill="#212121" fill-opacity="1" stroke="#212121" stroke-opacity="1" stroke-dasharray="10,6" stroke-dashoffset="0" stroke-width="0.666667" stroke-linecap="butt" stroke-linejoin="round" transform="matrix(0.731552,0,0,0.726997,-43.9538,-11.6647)"
font-family="MS Shell Dlg 2" font-size="8.25" font-weight="400" font-style="normal" 
>
<polyline fill="none" vector-effect="none" points="575.086,82.1428 575.086,82.1308 " />
<polyline fill="none" vector-effect="none" points="782.914,318.014 782.914,290.911 " />
<polyline fill="none" vector-effect="none" points="575.086,242.039 575.086,216.881 " />
<polyline fill="none" vector-effect="none" points="782.914,469.709 782.914,434.815 " />
</g>

<g fill="#212121" fill-opacity="1" stroke="#212121" stroke-opacity="1" stroke-width="0.666667" stroke-linecap="butt" stroke-linejoin="round" transform="matrix(0.731552,0,0,0.726997,-43.9538,-11.6647)"
font-family="MS Shell Dlg 2" font-size="8.25" font-weight="400" font-style="normal" 
>
<polyline fill="none" vector-effect="none" points="559.499,82.1308 590.673,82.1308 " />
<polyline fill="none" vector-effect="none" points="767.327,290.911 798.501,290.911 " />
<polyline fill="none" vector-effect="none" points="559.499,242.039 590.673,242.039 " />
<polyline fill="none" vector-effect="none" points="767.327,469.709 798.501,469.709 " />
</g>

<g fill="none" stroke="#1171be" stroke-opacity="1" stroke-width="0.666667" stroke-linecap="butt" stroke-linejoin="round" transform="matrix(0.731552,0,0,0.726997,-43.9538,-11.6647)"
font-family="MS Shell Dlg 2" font-size="8.25" font-weight="400" font-style="normal" 
>
<polyline fill="none" vector-effect="none" points="543.912,216.881 543.912,82.1428 606.26,82.1428 606.26,216.881 543.912,216.881 " />
<polyline fill="none" vector-effect="none" points="751.74,434.815 751.74,318.014 814.088,318.014 814.088,434.815 751.74,434.815 " />
</g>

<g fill="#dd5400" fill-opacity="1" stroke="#dd5400" stroke-opacity="1" stroke-width="0.666667" stroke-linecap="butt" stroke-linejoin="round" transform="matrix(0.731552,0,0,0.726997,-43.9538,-11.6647)"
font-family="MS Shell Dlg 2" font-size="8.25" font-weight="400" font-style="normal" 
>
<polyline fill="none" vector-effect="none" points="543.912,140.866 606.26,140.866 " />
<polyline fill="none" vector-effect="none" points="751.74,367.55 814.088,367.55 " />
</g>

<g fill="none" stroke="#ff0000" stroke-opacity="1" stroke-width="2" stroke-linecap="butt" stroke-linejoin="miter" stroke-miterlimit="2" transform="matrix(0.731552,0,0,0.726997,-43.9538,-11.6647)"
font-family="MS Shell Dlg 2" font-size="8.25" font-weight="400" font-style="normal" 
>
<path vector-effect="none" fill-rule="evenodd" d="M569.753,151.135 L575.086,158.229 L580.42,151.135 L575.086,144.042 L569.753,151.135"/>
<path vector-effect="none" fill-rule="evenodd" d="M777.58,375.681 L782.914,382.774 L788.247,375.681 L782.914,368.587 L777.58,375.681"/>
</g>

<g fill="#212121" fill-opacity="1" stroke="none" transform="matrix(0.731552,0,0,0.726997,259.275,10.951)"
font-family="MS Shell Dlg 2" font-size="8.25" font-weight="400" font-style="normal" 
>
<path vector-effect="none" fill-rule="evenodd" d="M0.65625,-4.1875 L3.1875,-4.4375 C3.33333,-3.59375 3.64063,-2.97135 4.10938,-2.57031 C4.57813,-2.16927 5.20833,-1.96875 6,-1.96875 C6.83333,-1.96875 7.46354,-2.14583 7.89063,-2.5 C8.31771,-2.85417 8.53125,-3.27083 8.53125,-3.75 C8.53125,-4.05208 8.4401,-4.3099 8.25781,-4.52344 C8.07552,-4.73698 7.76563,-4.92188 7.32813,-5.07813 C7.01563,-5.18229 6.31771,-5.36979 5.23438,-5.64063 C3.83854,-5.98438 2.85938,-6.41146 2.29688,-6.92188 C1.50521,-7.63021 1.10938,-8.49479 1.10938,-9.51563 C1.10938,-10.1719 1.29688,-10.7839 1.67188,-11.3516 C2.04688,-11.9193 2.58333,-12.3542 3.28125,-12.6563 C3.97917,-12.9583 4.82292,-13.1094 5.8125,-13.1094 C7.4375,-13.1094 8.65885,-12.7552 9.47656,-12.0469 C10.2943,-11.3385 10.724,-10.3906 10.7656,-9.20313 L8.15625,-9.09375 C8.04167,-9.75 7.80208,-10.224 7.4375,-10.5156 C7.07292,-10.8073 6.52604,-10.9531 5.79688,-10.9531 C5.03646,-10.9531 4.44271,-10.7969 4.01563,-10.4844 C3.74479,-10.2865 3.60938,-10.0208 3.60938,-9.6875 C3.60938,-9.38542 3.73438,-9.125 3.98438,-8.90625 C4.31771,-8.625 5.11719,-8.33594 6.38281,-8.03906 C7.64844,-7.74219 8.58333,-7.4349 9.1875,-7.11719 C9.79167,-6.79948 10.2656,-6.36198 10.6094,-5.80469 C10.9531,-5.2474 11.125,-4.5625 11.125,-3.75 C11.125,-3.01042 10.9193,-2.32031 10.5078,-1.67969 C10.0964,-1.03906 9.51563,-0.559896 8.76563,-0.242188 C8.01563,0.0755208 7.08333,0.234375 5.96875,0.234375 C4.34375,0.234375 3.09375,-0.143229 2.21875,-0.898438 C1.34375,-1.65365 0.822917,-2.75 0.65625,-4.1875 M21.4375,-6.57813 L19,-6.14063 C18.9167,-6.61979 18.7292,-6.98438 18.4375,-7.23438 C18.1458,-7.48438 17.7708,-7.60938 17.3125,-7.60938 C16.6979,-7.60938 16.2057,-7.39583 15.8359,-6.96875 C15.4661,-6.54167 15.2813,-5.82813 15.2813,-4.82813 C15.2813,-3.72396 15.4688,-2.94271 15.8438,-2.48438 C16.2188,-2.02604 16.7188,-1.79688 17.3438,-1.79688 C17.8125,-1.79688 18.1953,-1.93229 18.4922,-2.20313 C18.7891,-2.47396 19,-2.93229 19.125,-3.57813 L21.5469,-3.17188 C21.2969,-2.05729 20.8151,-1.21354 20.1016,-0.640625 C19.388,-0.0677083 18.4323,0.21875 17.2344,0.21875 C15.8698,0.21875 14.7813,-0.213542 13.9688,-1.07813 C13.1563,-1.94271 12.75,-3.13542 12.75,-4.65625 C12.75,-6.19792 13.1563,-7.39844 13.9688,-8.25781 C14.7813,-9.11719 15.8854,-9.54688 17.2813,-9.54688 C18.4167,-9.54688 19.3177,-9.30208 19.9844,-8.8125 C20.651,-8.32292 21.1354,-7.57813 21.4375,-6.57813 M28.7031,-2.96875 L31.1563,-2.5625 C30.8438,-1.65625 30.3464,-0.966146 29.6641,-0.492188 C28.9818,-0.0182292 28.125,0.21875 27.0938,0.21875 C25.4688,0.21875 24.2708,-0.3125 23.5,-1.375 C22.8854,-2.22917 22.5781,-3.30208 22.5781,-4.59375 C22.5781,-6.14583 22.9818,-7.35938 23.7891,-8.23438 C24.5964,-9.10938 25.6198,-9.54688 26.8594,-9.54688 C28.2448,-9.54688 29.3385,-9.08854 30.1406,-8.17188 C30.9427,-7.25521 31.3281,-5.84896 31.2969,-3.95313 L25.1094,-3.95313 C25.1198,-3.22396 25.3151,-2.65625 25.6953,-2.25 C26.0755,-1.84375 26.5521,-1.64063 27.125,-1.64063 C27.5104,-1.64063 27.8359,-1.74479 28.1016,-1.95313 C28.3672,-2.16146 28.5677,-2.5 28.7031,-2.96875 M28.8438,-5.46875 C28.8229,-6.1875 28.6354,-6.73177 28.2813,-7.10156 C27.9271,-7.47135 27.5,-7.65625 27,-7.65625 C26.4583,-7.65625 26.0156,-7.45833 25.6719,-7.0625 C25.3177,-6.67708 25.1406,-6.14583 25.1406,-5.46875 L28.8438,-5.46875 M41.7813,0 L39.3125,0 L39.3125,-4.76563 C39.3125,-5.77604 39.2604,-6.42708 39.1563,-6.71875 C39.0521,-7.01042 38.8802,-7.23958 38.6406,-7.40625 C38.401,-7.57292 38.1146,-7.65625 37.7813,-7.65625 C37.3542,-7.65625 36.9714,-7.53906 36.6328,-7.30469 C36.2943,-7.07031 36.0625,-6.76042 35.9375,-6.375 C35.8125,-5.98958 35.75,-5.27604 35.75,-4.23438 L35.75,0 L33.2813,0 L33.2813,-9.32813 L35.5625,-9.32813 L35.5625,-7.96875 C36.3854,-9.02083 37.4115,-9.54688 38.6406,-9.54688 C39.1927,-9.54688 39.6927,-9.44792 40.1406,-9.25 C40.5885,-9.05208 40.9297,-8.80208 41.1641,-8.5 C41.3984,-8.19792 41.5599,-7.85156 41.6484,-7.46094 C41.737,-7.07031 41.7813,-6.51563 41.7813,-5.79688 L41.7813,0 M46.1406,-6.48438 L43.8906,-6.89063 C44.151,-7.79688 44.5885,-8.46615 45.2031,-8.89844 C45.8177,-9.33073 46.7292,-9.54688 47.9375,-9.54688 C49.0417,-9.54688 49.862,-9.41667 50.3984,-9.15625 C50.9349,-8.89583 51.3151,-8.5651 51.5391,-8.16406 C51.763,-7.76302 51.875,-7.02604 51.875,-5.95313 L51.8438,-3.0625 C51.8438,-2.25 51.8828,-1.64844 51.9609,-1.25781 C52.0391,-0.867188 52.1875,-0.447917 52.4063,0 L49.9688,0 C49.8958,-0.166667 49.8125,-0.411458 49.7188,-0.734375 C49.6771,-0.880208 49.651,-0.973958 49.6406,-1.01563 C49.2135,-0.609375 48.7604,-0.302083 48.2813,-0.09375 C47.8021,0.114583 47.2917,0.21875 46.75,0.21875 C45.7813,0.21875 45.0208,-0.0442708 44.4688,-0.570313 C43.9167,-1.09635 43.6406,-1.75521 43.6406,-2.54688 C43.6406,-3.07813 43.7656,-3.54948 44.0156,-3.96094 C44.2656,-4.3724 44.6198,-4.6875 45.0781,-4.90625 C45.5365,-5.125 46.1927,-5.31771 47.0469,-5.48438 C48.2031,-5.70313 49,-5.90625 49.4375,-6.09375 L49.4375,-6.34375 C49.4375,-6.8125 49.3203,-7.14844 49.0859,-7.35156 C48.8516,-7.55469 48.4115,-7.65625 47.7656,-7.65625 C47.3281,-7.65625 46.9844,-7.57031 46.7344,-7.39844 C46.4844,-7.22656 46.2865,-6.92188 46.1406,-6.48438 M49.4375,-4.48438 C49.125,-4.38021 48.625,-4.25521 47.9375,-4.10938 C47.25,-3.96354 46.8021,-3.81771 46.5938,-3.67188 C46.2708,-3.44271 46.1094,-3.15104 46.1094,-2.79688 C46.1094,-2.45313 46.2396,-2.15625 46.5,-1.90625 C46.7604,-1.65625 47.0885,-1.53125 47.4844,-1.53125 C47.9323,-1.53125 48.3542,-1.67708 48.75,-1.96875 C49.0521,-2.1875 49.25,-2.45833 49.3438,-2.78125 C49.4063,-3 49.4375,-3.40104 49.4375,-3.98438 L49.4375,-4.48438 M56.6563,0 L54.1875,0 L54.1875,-9.32813 L56.4844,-9.32813 L56.4844,-8 C56.8698,-8.63542 57.2214,-9.05208 57.5391,-9.25 C57.8568,-9.44792 58.2135,-9.54688 58.6094,-9.54688 C59.1719,-9.54688 59.7135,-9.39063 60.2344,-9.07813 L59.4688,-6.92188 C59.0521,-7.19271 58.6667,-7.32813 58.3125,-7.32813 C57.9688,-7.32813 57.6745,-7.23438 57.4297,-7.04688 C57.1849,-6.85938 56.9948,-6.51563 56.8594,-6.01563 C56.724,-5.51563 56.6563,-4.47396 56.6563,-2.89063 L56.6563,0 M61.2969,-10.5938 L61.2969,-12.8906 L63.7656,-12.8906 L63.7656,-10.5938 L61.2969,-10.5938 M61.2969,0 L61.2969,-9.32813 L63.7656,-9.32813 L63.7656,0 L61.2969,0 M65.7188,-4.79688 C65.7188,-5.61979 65.9219,-6.41406 66.3281,-7.17969 C66.7344,-7.94531 67.3073,-8.53125 68.0469,-8.9375 C68.7865,-9.34375 69.6146,-9.54688 70.5313,-9.54688 C71.9375,-9.54688 73.0938,-9.08854 74,-8.17188 C74.9063,-7.25521 75.3594,-6.09375 75.3594,-4.6875 C75.3594,-3.28125 74.9036,-2.11198 73.9922,-1.17969 C73.0807,-0.247396 71.9323,0.21875 70.5469,0.21875 C69.6927,0.21875 68.8776,0.0234375 68.1016,-0.367188 C67.3255,-0.757813 66.7344,-1.32552 66.3281,-2.07031 C65.9219,-2.8151 65.7188,-3.72396 65.7188,-4.79688 M68.25,-4.67188 C68.25,-3.74479 68.4714,-3.03385 68.9141,-2.53906 C69.3568,-2.04427 69.8958,-1.79688 70.5313,-1.79688 C71.1771,-1.79688 71.7188,-2.04427 72.1563,-2.53906 C72.5938,-3.03385 72.8125,-3.75 72.8125,-4.6875 C72.8125,-5.60417 72.5938,-6.30729 72.1563,-6.79688 C71.7188,-7.28646 71.1771,-7.53125 70.5313,-7.53125 C69.8958,-7.53125 69.3568,-7.28646 68.9141,-6.79688 C68.4714,-6.30729 68.25,-5.59896 68.25,-4.67188 M90.1094,-2.29688 L90.1094,0 L81.4531,0 C81.5469,-0.864583 81.8281,-1.6849 82.2969,-2.46094 C82.7656,-3.23698 83.6875,-4.27083 85.0625,-5.5625 C86.1771,-6.59375 86.8646,-7.29688 87.125,-7.67188 C87.4583,-8.17188 87.625,-8.67188 87.625,-9.17188 C87.625,-9.72396 87.4766,-10.1484 87.1797,-10.4453 C86.8828,-10.7422 86.474,-10.8906 85.9531,-10.8906 C85.4427,-10.8906 85.0339,-10.7344 84.7266,-10.4219 C84.4193,-10.1094 84.2448,-9.59375 84.2031,-8.875 L81.7344,-9.125 C81.8802,-10.4792 82.3411,-11.4531 83.1172,-12.0469 C83.8932,-12.6406 84.8594,-12.9375 86.0156,-12.9375 C87.2865,-12.9375 88.2865,-12.5938 89.0156,-11.9063 C89.7448,-11.2188 90.1094,-10.3698 90.1094,-9.35938 C90.1094,-8.77604 90.0052,-8.22135 89.7969,-7.69531 C89.5885,-7.16927 89.2604,-6.61979 88.8125,-6.04688 C88.5104,-5.66146 87.9688,-5.11198 87.1875,-4.39844 C86.4063,-3.6849 85.9115,-3.21094 85.7031,-2.97656 C85.4948,-2.74219 85.3281,-2.51563 85.2031,-2.29688 L90.1094,-2.29688"/>
</g>
</g>
</svg>
